<?xml version="1.0" encoding="UTF-8"?>
<svg width="24" height="24" viewBox="0 0 24 24" fill="none" xmlns="http://www.w3.org/2000/svg">
  <path d="M12 4C7.58172 4 4 7.58172 4 12C4 16.4183 7.58172 20 12 20C16.4183 20 20 16.4183 20 12C20 7.58172 16.4183 4 12 4ZM2 12C2 6.47715 6.47715 2 12 2C17.5228 2 22 6.47715 22 12C22 17.5228 17.5228 22 12 22C6.47715 22 2 17.5228 2 12Z" fill="currentColor"/>
  <path d="M4.93934 4.93934C5.32987 4.54882 5.96313 4.54882 6.35366 4.93934L19.0607 17.6464C19.4512 18.0369 19.4512 18.6701 19.0607 19.0607C18.6701 19.4512 18.0369 19.4512 17.6464 19.0607L4.93934 6.35366C4.54882 5.96313 4.54882 5.32987 4.93934 4.93934Z" fill="currentColor"/>
</svg> 