<svg xmlns="http://www.w3.org/2000/svg" xmlns:xlink="http://www.w3.org/1999/xlink" width="1920" zoomAndPan="magnify" viewBox="0 0 1440 809.999993" height="1080" preserveAspectRatio="xMidYMid meet" version="1.2"><defs><clipPath id="ff5fc31d89"><path d="M 81 410.867188 L 1359 410.867188 L 1359 810 L 81 810 Z M 81 410.867188 "/></clipPath><clipPath id="ea1c429765"><path d="M 1359 485.867188 L 1359 824.214844 C 1359 865.636719 1325.421875 899.214844 1284 899.214844 L 156 899.214844 C 114.578125 899.214844 81 865.636719 81 824.214844 L 81 485.867188 C 81 444.445312 114.578125 410.867188 156 410.867188 L 1284 410.867188 C 1325.421875 410.867188 1359 444.445312 1359 485.867188 Z M 1359 485.867188 "/></clipPath><filter x="0%" y="0%" width="100%" filterUnits="objectBoundingBox" id="360e16af8a" height="100%"><feColorMatrix values="0 0 0 0 1 0 0 0 0 1 0 0 0 0 1 0 0 0 1 0" type="matrix" in="SourceGraphic"/></filter><clipPath id="20df1aff33"><path d="M 0.304688 0.28125 L 433.804688 0.28125 L 433.804688 573.640625 L 0.304688 573.640625 Z M 0.304688 0.28125 "/></clipPath><clipPath id="fae449958d"><rect x="0" width="435" y="0" height="574"/></clipPath></defs><g id="220952ddbe"><rect x="0" width="1440" y="0" height="809.999993" style="fill:#ffffff;fill-opacity:1;stroke:none;"/><rect x="0" width="1440" y="0" height="809.999993" style="fill:#ffffff;fill-opacity:1;stroke:none;"/><g clip-rule="nonzero" clip-path="url(#ff5fc31d89)"><g clip-rule="nonzero" clip-path="url(#ea1c429765)"><path style=" stroke:none;fill-rule:nonzero;fill:#ffaade;fill-opacity:1;" d="M 81 410.867188 L 1359.09375 410.867188 L 1359.09375 899.214844 L 81 899.214844 Z M 81 410.867188 "/></g></g><g mask="url(#33c2c25bf6)" transform="matrix(1,0,0,1,503,155)"><g clip-path="url(#fae449958d)"><g clip-rule="nonzero" clip-path="url(#20df1aff33)"><path style=" stroke:none;fill-rule:nonzero;fill:#a6a6a6;fill-opacity:1;" d="M 411.191406 37.386719 C 387.984375 4.625 348.398438 -5.839844 310.402344 3.714844 C 297.890625 6.902344 285.605469 10.539062 273.546875 14.636719 C 254.664062 21.234375 235.78125 24.417969 216.894531 24.417969 C 198.011719 24.417969 179.128906 21.234375 160.246094 14.636719 C 148.1875 10.539062 135.675781 6.671875 123.390625 3.714844 C 85.394531 -5.839844 45.808594 4.625 22.601562 37.386719 C -1.742188 71.511719 -5.152344 120.199219 7.8125 159.332031 C 26.925781 216.210938 56.730469 266.488281 53.089844 328.828125 C 49.222656 398.902344 51.496094 494.910156 92.675781 555.199219 C 106.324219 575.222656 132.945312 582.957031 145.457031 556.792969 C 161.15625 523.347656 157.0625 487.175781 152.964844 451.226562 C 148.871094 415.054688 145.003906 378.652344 161.609375 345.207031 C 172.988281 322.457031 191.414062 311.308594 216.894531 311.308594 C 242.378906 311.308594 260.804688 322.457031 272.179688 345.207031 C 288.789062 378.878906 284.921875 415.054688 280.828125 451.226562 C 276.730469 487.175781 272.636719 523.347656 288.335938 556.792969 C 300.621094 582.957031 327.464844 575.222656 341.117188 555.199219 C 382.296875 494.910156 384.796875 398.902344 380.703125 328.828125 C 377.0625 266.488281 407.09375 216.4375 425.976562 159.332031 C 438.945312 120.199219 435.53125 71.511719 411.191406 37.386719 Z M 411.191406 37.386719 "/></g></g><mask id="33c2c25bf6"><g filter="url(#360e16af8a)"><rect x="0" width="1440" y="0" height="809.999993" style="fill:#000000;fill-opacity:0.5;stroke:none;"/></g></mask></g><path style=" stroke:none;fill-rule:nonzero;fill:#d44a4a;fill-opacity:1;" d="M 420.707031 80.484375 L 490.640625 148.375 C 491.214844 148.929688 491.757812 149.511719 492.273438 150.121094 C 492.789062 150.730469 493.273438 151.363281 493.726562 152.023438 C 494.179688 152.679688 494.601562 153.355469 494.988281 154.054688 C 495.375 154.753906 495.726562 155.46875 496.042969 156.199219 C 496.359375 156.933594 496.636719 157.679688 496.878906 158.441406 C 497.125 159.199219 497.328125 159.96875 497.496094 160.75 C 497.664062 161.53125 497.792969 162.316406 497.882812 163.109375 C 497.972656 163.902344 498.023438 164.699219 498.035156 165.496094 C 498.046875 166.296875 498.019531 167.089844 497.953125 167.886719 C 497.886719 168.683594 497.78125 169.472656 497.636719 170.257812 C 497.492188 171.042969 497.308594 171.816406 497.089844 172.585938 C 496.871094 173.351562 496.613281 174.105469 496.316406 174.847656 C 496.023438 175.589844 495.691406 176.316406 495.328125 177.023438 C 494.960938 177.734375 494.5625 178.425781 494.128906 179.09375 C 493.695312 179.765625 493.230469 180.410156 492.734375 181.035156 C 492.234375 181.660156 491.710938 182.257812 491.152344 182.832031 C 490.597656 183.402344 490.015625 183.949219 489.40625 184.464844 C 488.796875 184.976562 488.164062 185.460938 487.507812 185.914062 C 486.847656 186.367188 486.171875 186.789062 485.472656 187.175781 C 484.777344 187.5625 484.058594 187.914062 483.328125 188.230469 C 482.59375 188.546875 481.847656 188.824219 481.089844 189.070312 C 480.328125 189.3125 479.558594 189.515625 478.777344 189.683594 C 477.996094 189.851562 477.210938 189.980469 476.417969 190.070312 C 475.625 190.160156 474.828125 190.210938 474.03125 190.222656 C 473.234375 190.234375 472.4375 190.207031 471.640625 190.140625 C 470.847656 190.074219 470.054688 189.96875 469.269531 189.824219 C 468.484375 189.679688 467.710938 189.5 466.941406 189.277344 C 466.175781 189.058594 465.421875 188.800781 464.679688 188.507812 C 463.9375 188.210938 463.210938 187.882812 462.503906 187.515625 C 461.792969 187.152344 461.105469 186.75 460.433594 186.316406 C 459.765625 185.882812 459.117188 185.417969 458.492188 184.921875 C 457.867188 184.425781 457.269531 183.898438 456.695312 183.34375 L 386.761719 115.453125 C 386.191406 114.894531 385.644531 114.3125 385.128906 113.703125 C 384.613281 113.09375 384.132812 112.460938 383.675781 111.804688 C 383.222656 111.148438 382.804688 110.46875 382.417969 109.769531 C 382.03125 109.074219 381.679688 108.359375 381.363281 107.625 C 381.046875 106.890625 380.769531 106.144531 380.523438 105.386719 C 380.28125 104.625 380.078125 103.855469 379.910156 103.074219 C 379.742188 102.292969 379.613281 101.507812 379.523438 100.714844 C 379.433594 99.921875 379.382812 99.125 379.371094 98.328125 C 379.359375 97.53125 379.386719 96.734375 379.453125 95.9375 C 379.519531 95.144531 379.625 94.355469 379.769531 93.570312 C 379.914062 92.785156 380.09375 92.007812 380.316406 91.242188 C 380.535156 90.472656 380.792969 89.71875 381.085938 88.976562 C 381.382812 88.234375 381.710938 87.511719 382.078125 86.800781 C 382.441406 86.089844 382.84375 85.402344 383.277344 84.730469 C 383.710938 84.0625 384.175781 83.414062 384.671875 82.789062 C 385.167969 82.164062 385.695312 81.566406 386.25 80.996094 C 386.808594 80.421875 387.390625 79.878906 388 79.363281 C 388.609375 78.847656 389.242188 78.363281 389.898438 77.910156 C 390.554688 77.457031 391.234375 77.035156 391.929688 76.652344 C 392.628906 76.265625 393.34375 75.914062 394.078125 75.597656 C 394.808594 75.28125 395.558594 75 396.316406 74.757812 C 397.078125 74.515625 397.847656 74.308594 398.628906 74.140625 C 399.40625 73.972656 400.195312 73.847656 400.988281 73.757812 C 401.78125 73.664062 402.574219 73.613281 403.375 73.601562 C 404.171875 73.589844 404.96875 73.617188 405.765625 73.683594 C 406.558594 73.75 407.347656 73.855469 408.132812 74 C 408.917969 74.144531 409.695312 74.328125 410.460938 74.546875 C 411.230469 74.769531 411.984375 75.023438 412.726562 75.320312 C 413.46875 75.613281 414.191406 75.945312 414.902344 76.308594 C 415.609375 76.675781 416.300781 77.074219 416.972656 77.507812 C 417.640625 77.941406 418.289062 78.40625 418.914062 78.90625 C 419.535156 79.402344 420.136719 79.929688 420.707031 80.484375 Z M 560.578125 216.265625 L 630.511719 284.15625 C 631.085938 284.710938 631.628906 285.296875 632.144531 285.902344 C 632.660156 286.511719 633.144531 287.148438 633.597656 287.804688 C 634.050781 288.460938 634.46875 289.136719 634.855469 289.835938 C 635.242188 290.535156 635.59375 291.25 635.910156 291.984375 C 636.226562 292.714844 636.507812 293.460938 636.75 294.222656 C 636.992188 294.980469 637.199219 295.753906 637.363281 296.53125 C 637.53125 297.3125 637.660156 298.097656 637.75 298.890625 C 637.839844 299.683594 637.890625 300.480469 637.902344 301.277344 C 637.914062 302.078125 637.886719 302.875 637.820312 303.667969 C 637.753906 304.464844 637.648438 305.253906 637.503906 306.039062 C 637.363281 306.824219 637.179688 307.601562 636.960938 308.367188 C 636.738281 309.132812 636.480469 309.886719 636.1875 310.628906 C 635.894531 311.371094 635.5625 312.097656 635.195312 312.808594 C 634.832031 313.515625 634.429688 314.207031 634 314.875 C 633.566406 315.546875 633.097656 316.191406 632.601562 316.816406 C 632.105469 317.441406 631.578125 318.039062 631.023438 318.613281 C 630.46875 319.183594 629.882812 319.730469 629.273438 320.246094 C 628.664062 320.761719 628.03125 321.246094 627.375 321.699219 C 626.71875 322.152344 626.042969 322.570312 625.34375 322.957031 C 624.644531 323.34375 623.929688 323.695312 623.195312 324.011719 C 622.464844 324.328125 621.71875 324.609375 620.957031 324.851562 C 620.199219 325.09375 619.425781 325.296875 618.648438 325.464844 C 617.867188 325.632812 617.078125 325.761719 616.285156 325.851562 C 615.492188 325.941406 614.699219 325.992188 613.902344 326.003906 C 613.101562 326.015625 612.304688 325.988281 611.511719 325.921875 C 610.714844 325.855469 609.925781 325.75 609.140625 325.605469 C 608.355469 325.460938 607.578125 325.28125 606.8125 325.058594 C 606.046875 324.839844 605.289062 324.582031 604.550781 324.289062 C 603.808594 323.992188 603.082031 323.664062 602.371094 323.296875 C 601.664062 322.933594 600.972656 322.53125 600.304688 322.097656 C 599.632812 321.664062 598.984375 321.199219 598.363281 320.703125 C 597.738281 320.207031 597.140625 319.679688 596.566406 319.125 L 526.632812 251.234375 C 526.058594 250.675781 525.515625 250.09375 525 249.484375 C 524.484375 248.875 524 248.242188 523.546875 247.585938 C 523.09375 246.929688 522.675781 246.25 522.289062 245.554688 C 521.902344 244.855469 521.550781 244.140625 521.234375 243.40625 C 520.917969 242.675781 520.636719 241.929688 520.394531 241.167969 C 520.152344 240.40625 519.945312 239.636719 519.777344 238.855469 C 519.613281 238.078125 519.484375 237.289062 519.394531 236.496094 C 519.304688 235.703125 519.253906 234.910156 519.238281 234.109375 C 519.226562 233.3125 519.253906 232.515625 519.320312 231.722656 C 519.386719 230.925781 519.492188 230.136719 519.636719 229.351562 C 519.78125 228.566406 519.964844 227.789062 520.183594 227.023438 C 520.40625 226.253906 520.660156 225.5 520.957031 224.757812 C 521.25 224.015625 521.582031 223.292969 521.945312 222.582031 C 522.3125 221.875 522.710938 221.183594 523.144531 220.511719 C 523.578125 219.84375 524.042969 219.195312 524.542969 218.570312 C 525.039062 217.949219 525.566406 217.347656 526.121094 216.777344 C 526.675781 216.203125 527.257812 215.660156 527.867188 215.144531 C 528.476562 214.628906 529.109375 214.144531 529.769531 213.691406 C 530.425781 213.238281 531.101562 212.820312 531.800781 212.433594 C 532.5 212.046875 533.214844 211.695312 533.945312 211.378906 C 534.679688 211.0625 535.425781 210.78125 536.1875 210.539062 C 536.945312 210.296875 537.714844 210.089844 538.496094 209.921875 C 539.277344 209.757812 540.0625 209.628906 540.855469 209.539062 C 541.648438 209.449219 542.445312 209.398438 543.242188 209.386719 C 544.042969 209.375 544.835938 209.402344 545.632812 209.46875 C 546.429688 209.535156 547.21875 209.636719 548.003906 209.78125 C 548.789062 209.925781 549.5625 210.109375 550.332031 210.328125 C 551.097656 210.550781 551.851562 210.808594 552.59375 211.101562 C 553.335938 211.394531 554.0625 211.726562 554.769531 212.089844 C 555.480469 212.457031 556.171875 212.855469 556.839844 213.289062 C 557.511719 213.722656 558.15625 214.1875 558.78125 214.6875 C 559.40625 215.183594 560.003906 215.710938 560.578125 216.265625 Z M 700.445312 352.046875 L 770.382812 419.9375 C 770.953125 420.492188 771.496094 421.078125 772.011719 421.6875 C 772.527344 422.296875 773.011719 422.929688 773.464844 423.585938 C 773.917969 424.242188 774.339844 424.917969 774.726562 425.617188 C 775.113281 426.316406 775.464844 427.03125 775.78125 427.765625 C 776.097656 428.496094 776.375 429.242188 776.617188 430.003906 C 776.863281 430.761719 777.066406 431.535156 777.234375 432.3125 C 777.402344 433.09375 777.53125 433.882812 777.621094 434.675781 C 777.710938 435.46875 777.761719 436.261719 777.773438 437.058594 C 777.785156 437.859375 777.757812 438.65625 777.691406 439.449219 C 777.625 440.246094 777.519531 441.035156 777.375 441.820312 C 777.230469 442.605469 777.050781 443.382812 776.828125 444.148438 C 776.609375 444.914062 776.351562 445.671875 776.054688 446.410156 C 775.761719 447.152344 775.433594 447.878906 775.066406 448.589844 C 774.699219 449.296875 774.300781 449.988281 773.867188 450.65625 C 773.433594 451.328125 772.96875 451.976562 772.472656 452.597656 C 771.972656 453.222656 771.449219 453.820312 770.890625 454.394531 C 770.335938 454.96875 769.753906 455.511719 769.144531 456.027344 C 768.535156 456.542969 767.902344 457.027344 767.246094 457.480469 C 766.589844 457.933594 765.910156 458.351562 765.210938 458.738281 C 764.515625 459.125 763.796875 459.476562 763.066406 459.792969 C 762.332031 460.109375 761.585938 460.390625 760.828125 460.632812 C 760.066406 460.875 759.296875 461.082031 758.515625 461.246094 C 757.734375 461.414062 756.949219 461.542969 756.15625 461.632812 C 755.363281 461.722656 754.566406 461.773438 753.769531 461.785156 C 752.972656 461.796875 752.175781 461.769531 751.378906 461.703125 C 750.585938 461.636719 749.792969 461.53125 749.007812 461.386719 C 748.222656 461.246094 747.449219 461.0625 746.679688 460.84375 C 745.914062 460.621094 745.160156 460.363281 744.417969 460.070312 C 743.675781 459.773438 742.949219 459.445312 742.242188 459.078125 C 741.53125 458.714844 740.84375 458.3125 740.171875 457.878906 C 739.503906 457.445312 738.855469 456.980469 738.230469 456.484375 C 737.605469 455.988281 737.007812 455.460938 736.4375 454.90625 L 666.5 387.015625 C 665.929688 386.457031 665.382812 385.875 664.867188 385.265625 C 664.355469 384.65625 663.871094 384.023438 663.417969 383.367188 C 662.964844 382.710938 662.542969 382.03125 662.15625 381.335938 C 661.769531 380.636719 661.417969 379.921875 661.101562 379.1875 C 660.785156 378.457031 660.507812 377.710938 660.261719 376.949219 C 660.019531 376.1875 659.816406 375.417969 659.648438 374.636719 C 659.480469 373.859375 659.351562 373.070312 659.261719 372.277344 C 659.171875 371.484375 659.121094 370.691406 659.109375 369.890625 C 659.097656 369.09375 659.125 368.296875 659.191406 367.503906 C 659.257812 366.707031 659.363281 365.917969 659.507812 365.132812 C 659.652344 364.347656 659.832031 363.570312 660.054688 362.804688 C 660.273438 362.035156 660.53125 361.28125 660.824219 360.539062 C 661.121094 359.800781 661.449219 359.074219 661.816406 358.363281 C 662.183594 357.65625 662.582031 356.964844 663.015625 356.296875 C 663.449219 355.625 663.914062 354.976562 664.410156 354.355469 C 664.90625 353.730469 665.433594 353.132812 665.988281 352.558594 C 666.546875 351.984375 667.128906 351.441406 667.738281 350.925781 C 668.347656 350.410156 668.980469 349.925781 669.636719 349.472656 C 670.292969 349.019531 670.972656 348.601562 671.667969 348.214844 C 672.367188 347.828125 673.082031 347.476562 673.816406 347.160156 C 674.550781 346.84375 675.296875 346.5625 676.054688 346.320312 C 676.816406 346.078125 677.585938 345.871094 678.367188 345.707031 C 679.148438 345.539062 679.933594 345.410156 680.726562 345.320312 C 681.519531 345.230469 682.316406 345.179688 683.113281 345.167969 C 683.910156 345.15625 684.707031 345.183594 685.503906 345.25 C 686.296875 345.316406 687.085938 345.421875 687.871094 345.5625 C 688.65625 345.707031 689.433594 345.890625 690.199219 346.109375 C 690.96875 346.332031 691.722656 346.589844 692.464844 346.882812 C 693.207031 347.175781 693.929688 347.507812 694.640625 347.875 C 695.351562 348.238281 696.039062 348.636719 696.710938 349.070312 C 697.378906 349.503906 698.027344 349.972656 698.652344 350.46875 C 699.277344 350.964844 699.875 351.492188 700.445312 352.046875 Z M 840.316406 487.828125 L 910.25 555.71875 C 910.824219 556.277344 911.367188 556.859375 911.882812 557.46875 C 912.398438 558.078125 912.882812 558.710938 913.335938 559.367188 C 913.789062 560.023438 914.207031 560.703125 914.59375 561.398438 C 914.980469 562.097656 915.332031 562.8125 915.648438 563.546875 C 915.964844 564.277344 916.246094 565.023438 916.488281 565.785156 C 916.730469 566.546875 916.9375 567.316406 917.101562 568.097656 C 917.269531 568.875 917.398438 569.664062 917.488281 570.457031 C 917.578125 571.25 917.628906 572.042969 917.640625 572.84375 C 917.652344 573.640625 917.625 574.4375 917.558594 575.230469 C 917.492188 576.027344 917.386719 576.816406 917.246094 577.601562 C 917.101562 578.386719 916.917969 579.164062 916.699219 579.929688 C 916.476562 580.699219 916.21875 581.453125 915.925781 582.195312 C 915.632812 582.933594 915.300781 583.660156 914.933594 584.371094 C 914.570312 585.078125 914.171875 585.769531 913.738281 586.4375 C 913.304688 587.109375 912.839844 587.757812 912.339844 588.378906 C 911.84375 589.003906 911.316406 589.605469 910.761719 590.175781 C 910.207031 590.75 909.621094 591.292969 909.011719 591.808594 C 908.402344 592.324219 907.769531 592.808594 907.113281 593.261719 C 906.457031 593.714844 905.78125 594.132812 905.082031 594.519531 C 904.382812 594.90625 903.667969 595.257812 902.933594 595.574219 C 902.203125 595.890625 901.457031 596.171875 900.695312 596.414062 C 899.9375 596.65625 899.164062 596.863281 898.386719 597.027344 C 897.605469 597.195312 896.820312 597.324219 896.027344 597.414062 C 895.234375 597.503906 894.4375 597.554688 893.640625 597.566406 C 892.839844 597.578125 892.042969 597.550781 891.25 597.484375 C 890.453125 597.417969 889.664062 597.3125 888.878906 597.171875 C 888.09375 597.027344 887.316406 596.84375 886.550781 596.625 C 885.785156 596.402344 885.03125 596.144531 884.289062 595.851562 C 883.546875 595.558594 882.820312 595.226562 882.109375 594.859375 C 881.402344 594.496094 880.710938 594.097656 880.042969 593.664062 C 879.371094 593.230469 878.726562 592.761719 878.101562 592.265625 C 877.476562 591.769531 876.878906 591.242188 876.304688 590.6875 L 806.371094 522.796875 C 805.796875 522.242188 805.253906 521.65625 804.738281 521.046875 C 804.222656 520.4375 803.738281 519.804688 803.285156 519.148438 C 802.832031 518.492188 802.414062 517.816406 802.027344 517.117188 C 801.640625 516.417969 801.289062 515.703125 800.972656 514.96875 C 800.65625 514.238281 800.375 513.492188 800.132812 512.730469 C 799.890625 511.972656 799.683594 511.199219 799.515625 510.421875 C 799.351562 509.640625 799.222656 508.851562 799.132812 508.058594 C 799.042969 507.265625 798.992188 506.472656 798.980469 505.675781 C 798.96875 504.875 798.996094 504.078125 799.0625 503.285156 C 799.128906 502.488281 799.230469 501.699219 799.375 500.914062 C 799.519531 500.128906 799.703125 499.351562 799.921875 498.585938 C 800.144531 497.820312 800.402344 497.0625 800.695312 496.324219 C 800.988281 495.582031 801.320312 494.855469 801.683594 494.144531 C 802.050781 493.4375 802.449219 492.746094 802.882812 492.078125 C 803.316406 491.40625 803.78125 490.757812 804.28125 490.136719 C 804.777344 489.511719 805.304688 488.914062 805.859375 488.339844 C 806.414062 487.765625 806.996094 487.222656 807.605469 486.707031 C 808.214844 486.191406 808.851562 485.707031 809.507812 485.253906 C 810.164062 484.800781 810.839844 484.382812 811.539062 483.996094 C 812.238281 483.609375 812.953125 483.257812 813.683594 482.941406 C 814.417969 482.625 815.164062 482.34375 815.925781 482.101562 C 816.683594 481.859375 817.457031 481.652344 818.234375 481.488281 C 819.015625 481.320312 819.800781 481.191406 820.59375 481.101562 C 821.386719 481.011719 822.183594 480.960938 822.980469 480.949219 C 823.78125 480.9375 824.578125 480.964844 825.371094 481.03125 C 826.167969 481.097656 826.957031 481.203125 827.742188 481.347656 C 828.527344 481.488281 829.304688 481.671875 830.070312 481.890625 C 830.835938 482.113281 831.589844 482.371094 832.332031 482.664062 C 833.074219 482.960938 833.800781 483.289062 834.507812 483.65625 C 835.21875 484.019531 835.910156 484.421875 836.578125 484.855469 C 837.25 485.289062 837.894531 485.753906 838.519531 486.25 C 839.144531 486.746094 839.742188 487.273438 840.316406 487.828125 Z M 980.183594 623.609375 L 1050.121094 691.5 C 1050.691406 692.058594 1051.238281 692.640625 1051.75 693.25 C 1052.265625 693.859375 1052.75 694.492188 1053.203125 695.148438 C 1053.65625 695.804688 1054.078125 696.484375 1054.464844 697.179688 C 1054.851562 697.878906 1055.203125 698.59375 1055.519531 699.328125 C 1055.835938 700.058594 1056.113281 700.808594 1056.359375 701.566406 C 1056.601562 702.328125 1056.804688 703.097656 1056.972656 703.878906 C 1057.140625 704.65625 1057.269531 705.445312 1057.359375 706.238281 C 1057.449219 707.03125 1057.5 707.824219 1057.511719 708.625 C 1057.523438 709.421875 1057.496094 710.21875 1057.429688 711.015625 C 1057.363281 711.808594 1057.257812 712.597656 1057.113281 713.382812 C 1056.96875 714.167969 1056.789062 714.945312 1056.566406 715.710938 C 1056.347656 716.480469 1056.089844 717.234375 1055.796875 717.976562 C 1055.5 718.71875 1055.171875 719.441406 1054.804688 720.152344 C 1054.4375 720.859375 1054.039062 721.550781 1053.605469 722.222656 C 1053.171875 722.890625 1052.707031 723.539062 1052.210938 724.164062 C 1051.714844 724.785156 1051.1875 725.386719 1050.628906 725.957031 C 1050.074219 726.53125 1049.492188 727.074219 1048.882812 727.589844 C 1048.273438 728.105469 1047.640625 728.589844 1046.984375 729.042969 C 1046.328125 729.496094 1045.648438 729.914062 1044.949219 730.300781 C 1044.253906 730.6875 1043.539062 731.039062 1042.804688 731.355469 C 1042.070312 731.671875 1041.324219 731.953125 1040.566406 732.195312 C 1039.804688 732.4375 1039.035156 732.644531 1038.253906 732.8125 C 1037.472656 732.976562 1036.6875 733.105469 1035.894531 733.195312 C 1035.101562 733.285156 1034.304688 733.335938 1033.507812 733.347656 C 1032.710938 733.363281 1031.914062 733.335938 1031.117188 733.269531 C 1030.324219 733.203125 1029.53125 733.097656 1028.75 732.953125 C 1027.964844 732.808594 1027.1875 732.625 1026.421875 732.40625 C 1025.652344 732.183594 1024.898438 731.925781 1024.15625 731.632812 C 1023.414062 731.339844 1022.691406 731.007812 1021.980469 730.644531 C 1021.269531 730.277344 1020.582031 729.878906 1019.910156 729.445312 C 1019.242188 729.011719 1018.59375 728.546875 1017.96875 728.046875 C 1017.34375 727.550781 1016.746094 727.023438 1016.175781 726.46875 L 946.238281 658.578125 C 945.667969 658.023438 945.125 657.441406 944.609375 656.832031 C 944.09375 656.222656 943.609375 655.585938 943.15625 654.929688 C 942.703125 654.273438 942.28125 653.597656 941.894531 652.898438 C 941.507812 652.199219 941.15625 651.484375 940.839844 650.753906 C 940.523438 650.019531 940.246094 649.273438 940.003906 648.511719 C 939.757812 647.753906 939.554688 646.980469 939.386719 646.203125 C 939.21875 645.421875 939.089844 644.636719 939 643.84375 C 938.910156 643.050781 938.859375 642.253906 938.847656 641.457031 C 938.835938 640.65625 938.863281 639.859375 938.929688 639.066406 C 938.996094 638.269531 939.101562 637.480469 939.246094 636.695312 C 939.390625 635.910156 939.570312 635.132812 939.792969 634.367188 C 940.011719 633.601562 940.269531 632.847656 940.5625 632.105469 C 940.859375 631.363281 941.1875 630.636719 941.554688 629.925781 C 941.921875 629.21875 942.320312 628.527344 942.753906 627.859375 C 943.1875 627.1875 943.652344 626.542969 944.148438 625.917969 C 944.644531 625.292969 945.171875 624.695312 945.730469 624.121094 C 946.285156 623.550781 946.867188 623.003906 947.476562 622.488281 C 948.085938 621.972656 948.71875 621.488281 949.375 621.035156 C 950.03125 620.582031 950.710938 620.164062 951.410156 619.777344 C 952.105469 619.390625 952.820312 619.039062 953.554688 618.722656 C 954.289062 618.40625 955.035156 618.128906 955.792969 617.882812 C 956.554688 617.640625 957.324219 617.4375 958.105469 617.269531 C 958.886719 617.101562 959.671875 616.972656 960.464844 616.882812 C 961.257812 616.792969 962.054688 616.742188 962.851562 616.730469 C 963.648438 616.71875 964.445312 616.746094 965.242188 616.8125 C 966.035156 616.878906 966.828125 616.984375 967.609375 617.128906 C 968.394531 617.273438 969.171875 617.453125 969.9375 617.675781 C 970.707031 617.894531 971.460938 618.152344 972.203125 618.445312 C 972.945312 618.742188 973.667969 619.070312 974.378906 619.4375 C 975.089844 619.800781 975.777344 620.203125 976.449219 620.636719 C 977.117188 621.070312 977.765625 621.535156 978.390625 622.03125 C 979.015625 622.527344 979.613281 623.054688 980.183594 623.609375 Z M 980.183594 623.609375 "/><path style=" stroke:none;fill-rule:nonzero;fill:#d44a4a;fill-opacity:1;" d="M 1050.664062 115.46875 L 980.839844 183.523438 C 980.269531 184.078125 979.671875 184.605469 979.046875 185.105469 C 978.421875 185.605469 977.777344 186.070312 977.109375 186.503906 C 976.4375 186.941406 975.75 187.339844 975.039062 187.707031 C 974.332031 188.074219 973.605469 188.40625 972.863281 188.703125 C 972.125 189 971.371094 189.257812 970.601562 189.480469 C 969.835938 189.703125 969.058594 189.886719 968.273438 190.03125 C 967.488281 190.175781 966.699219 190.285156 965.90625 190.351562 C 965.109375 190.421875 964.3125 190.449219 963.515625 190.4375 C 962.714844 190.429688 961.917969 190.378906 961.125 190.292969 C 960.332031 190.203125 959.546875 190.074219 958.765625 189.910156 C 957.984375 189.742188 957.214844 189.539062 956.453125 189.300781 C 955.691406 189.058594 954.945312 188.777344 954.210938 188.464844 C 953.476562 188.148438 952.761719 187.800781 952.0625 187.414062 C 951.363281 187.027344 950.683594 186.609375 950.027344 186.15625 C 949.367188 185.707031 948.734375 185.222656 948.121094 184.707031 C 947.511719 184.195312 946.929688 183.652344 946.371094 183.078125 C 945.8125 182.507812 945.285156 181.910156 944.789062 181.285156 C 944.289062 180.664062 943.824219 180.015625 943.386719 179.347656 C 942.953125 178.675781 942.550781 177.988281 942.183594 177.28125 C 941.816406 176.570312 941.484375 175.84375 941.1875 175.105469 C 940.894531 174.363281 940.632812 173.609375 940.414062 172.839844 C 940.191406 172.074219 940.007812 171.300781 939.859375 170.515625 C 939.714844 169.730469 939.609375 168.9375 939.539062 168.144531 C 939.472656 167.347656 939.445312 166.550781 939.453125 165.753906 C 939.464844 164.953125 939.511719 164.160156 939.601562 163.367188 C 939.691406 162.574219 939.816406 161.785156 939.984375 161.003906 C 940.148438 160.222656 940.351562 159.453125 940.59375 158.691406 C 940.835938 157.929688 941.113281 157.183594 941.429688 156.449219 C 941.742188 155.714844 942.09375 155 942.480469 154.300781 C 942.863281 153.601562 943.285156 152.921875 943.734375 152.265625 C 944.1875 151.605469 944.671875 150.972656 945.183594 150.363281 C 945.699219 149.75 946.242188 149.167969 946.8125 148.609375 L 1016.636719 80.558594 C 1017.207031 80 1017.804688 79.472656 1018.429688 78.976562 C 1019.054688 78.476562 1019.699219 78.011719 1020.367188 77.574219 C 1021.039062 77.140625 1021.726562 76.738281 1022.4375 76.371094 C 1023.144531 76.003906 1023.871094 75.671875 1024.613281 75.378906 C 1025.351562 75.082031 1026.105469 74.820312 1026.875 74.601562 C 1027.640625 74.378906 1028.417969 74.195312 1029.203125 74.046875 C 1029.988281 73.902344 1030.777344 73.796875 1031.570312 73.726562 C 1032.367188 73.660156 1033.164062 73.632812 1033.960938 73.640625 C 1034.761719 73.652344 1035.558594 73.699219 1036.351562 73.789062 C 1037.144531 73.878906 1037.929688 74.003906 1038.710938 74.171875 C 1039.492188 74.335938 1040.261719 74.539062 1041.023438 74.78125 C 1041.785156 75.023438 1042.53125 75.300781 1043.265625 75.617188 C 1044 75.929688 1044.714844 76.28125 1045.414062 76.667969 C 1046.113281 77.050781 1046.792969 77.472656 1047.449219 77.921875 C 1048.109375 78.375 1048.742188 78.859375 1049.355469 79.371094 C 1049.964844 79.886719 1050.546875 80.429688 1051.105469 81 C 1051.664062 81.574219 1052.191406 82.171875 1052.6875 82.792969 C 1053.1875 83.417969 1053.652344 84.0625 1054.089844 84.734375 C 1054.523438 85.402344 1054.925781 86.09375 1055.292969 86.800781 C 1055.660156 87.511719 1055.992188 88.234375 1056.285156 88.976562 C 1056.582031 89.71875 1056.84375 90.472656 1057.0625 91.238281 C 1057.285156 92.003906 1057.46875 92.78125 1057.617188 93.566406 C 1057.761719 94.351562 1057.867188 95.140625 1057.9375 95.9375 C 1058.003906 96.734375 1058.03125 97.527344 1058.023438 98.328125 C 1058.011719 99.125 1057.964844 99.921875 1057.875 100.714844 C 1057.785156 101.507812 1057.660156 102.296875 1057.492188 103.078125 C 1057.328125 103.855469 1057.125 104.628906 1056.882812 105.390625 C 1056.640625 106.148438 1056.363281 106.898438 1056.046875 107.628906 C 1055.734375 108.363281 1055.382812 109.082031 1054.996094 109.78125 C 1054.613281 110.480469 1054.191406 111.15625 1053.742188 111.816406 C 1053.289062 112.472656 1052.804688 113.109375 1052.292969 113.71875 C 1051.777344 114.328125 1051.234375 114.914062 1050.664062 115.46875 Z M 911.015625 251.574219 L 841.195312 319.625 C 840.621094 320.183594 840.023438 320.710938 839.402344 321.207031 C 838.777344 321.707031 838.132812 322.175781 837.460938 322.609375 C 836.792969 323.042969 836.105469 323.445312 835.394531 323.8125 C 834.6875 324.179688 833.960938 324.511719 833.21875 324.808594 C 832.476562 325.101562 831.722656 325.363281 830.957031 325.585938 C 830.191406 325.804688 829.414062 325.988281 828.628906 326.136719 C 827.84375 326.28125 827.054688 326.386719 826.257812 326.457031 C 825.464844 326.523438 824.667969 326.554688 823.867188 326.542969 C 823.070312 326.53125 822.273438 326.484375 821.480469 326.394531 C 820.6875 326.304688 819.902344 326.179688 819.121094 326.011719 C 818.339844 325.847656 817.566406 325.644531 816.808594 325.402344 C 816.046875 325.160156 815.296875 324.882812 814.566406 324.566406 C 813.832031 324.253906 813.117188 323.902344 812.417969 323.515625 C 811.71875 323.132812 811.039062 322.714844 810.378906 322.261719 C 809.722656 321.808594 809.089844 321.324219 808.476562 320.8125 C 807.867188 320.296875 807.28125 319.753906 806.726562 319.183594 C 806.167969 318.609375 805.640625 318.011719 805.140625 317.390625 C 804.644531 316.765625 804.175781 316.121094 803.742188 315.449219 C 803.308594 314.78125 802.90625 314.089844 802.539062 313.382812 C 802.171875 312.675781 801.839844 311.949219 801.542969 311.207031 C 801.246094 310.464844 800.988281 309.710938 800.765625 308.945312 C 800.546875 308.179688 800.363281 307.402344 800.214844 306.617188 C 800.070312 305.832031 799.964844 305.042969 799.894531 304.246094 C 799.828125 303.453125 799.796875 302.65625 799.808594 301.855469 C 799.820312 301.058594 799.867188 300.261719 799.957031 299.46875 C 800.046875 298.675781 800.171875 297.886719 800.339844 297.109375 C 800.503906 296.328125 800.707031 295.554688 800.949219 294.796875 C 801.191406 294.035156 801.46875 293.285156 801.785156 292.554688 C 802.097656 291.820312 802.449219 291.101562 802.835938 290.402344 C 803.21875 289.707031 803.636719 289.027344 804.089844 288.367188 C 804.542969 287.710938 805.023438 287.078125 805.539062 286.464844 C 806.054688 285.855469 806.597656 285.269531 807.167969 284.714844 L 876.992188 216.664062 C 877.5625 216.105469 878.160156 215.578125 878.785156 215.078125 C 879.40625 214.582031 880.054688 214.113281 880.722656 213.679688 C 881.394531 213.242188 882.082031 212.84375 882.789062 212.476562 C 883.5 212.109375 884.226562 211.777344 884.964844 211.480469 C 885.707031 211.183594 886.460938 210.925781 887.230469 210.703125 C 887.996094 210.480469 888.769531 210.296875 889.554688 210.152344 C 890.339844 210.007812 891.132812 209.898438 891.925781 209.832031 C 892.722656 209.761719 893.519531 209.734375 894.316406 209.746094 C 895.117188 209.753906 895.910156 209.804688 896.703125 209.894531 C 897.5 209.980469 898.285156 210.109375 899.066406 210.273438 C 899.847656 210.441406 900.617188 210.644531 901.378906 210.886719 C 902.140625 211.125 902.886719 211.40625 903.621094 211.71875 C 904.355469 212.035156 905.070312 212.386719 905.769531 212.769531 C 906.46875 213.15625 907.148438 213.574219 907.804688 214.027344 C 908.464844 214.476562 909.097656 214.960938 909.707031 215.476562 C 910.320312 215.992188 910.902344 216.535156 911.460938 217.105469 C 912.015625 217.675781 912.542969 218.273438 913.042969 218.898438 C 913.542969 219.519531 914.007812 220.167969 914.445312 220.835938 C 914.878906 221.507812 915.28125 222.195312 915.648438 222.90625 C 916.015625 223.613281 916.347656 224.339844 916.640625 225.078125 C 916.9375 225.820312 917.195312 226.574219 917.417969 227.34375 C 917.640625 228.109375 917.824219 228.886719 917.96875 229.671875 C 918.117188 230.453125 918.222656 231.246094 918.289062 232.039062 C 918.359375 232.835938 918.386719 233.632812 918.378906 234.429688 C 918.367188 235.230469 918.316406 236.023438 918.230469 236.820312 C 918.140625 237.613281 918.011719 238.398438 917.847656 239.179688 C 917.683594 239.960938 917.476562 240.730469 917.238281 241.492188 C 916.996094 242.253906 916.71875 243 916.402344 243.734375 C 916.085938 244.46875 915.738281 245.183594 915.351562 245.882812 C 914.964844 246.582031 914.546875 247.261719 914.09375 247.917969 C 913.644531 248.578125 913.160156 249.210938 912.644531 249.820312 C 912.132812 250.433594 911.589844 251.015625 911.015625 251.574219 Z M 771.371094 387.675781 L 701.550781 455.730469 C 700.976562 456.285156 700.378906 456.8125 699.757812 457.3125 C 699.132812 457.8125 698.484375 458.277344 697.816406 458.710938 C 697.148438 459.148438 696.457031 459.546875 695.75 459.914062 C 695.039062 460.28125 694.316406 460.613281 693.574219 460.910156 C 692.832031 461.207031 692.078125 461.464844 691.3125 461.6875 C 690.542969 461.910156 689.769531 462.09375 688.984375 462.238281 C 688.199219 462.382812 687.410156 462.492188 686.613281 462.558594 C 685.816406 462.628906 685.019531 462.65625 684.222656 462.644531 C 683.425781 462.636719 682.628906 462.585938 681.835938 462.5 C 681.042969 462.410156 680.253906 462.28125 679.472656 462.117188 C 678.691406 461.949219 677.921875 461.746094 677.160156 461.503906 C 676.402344 461.265625 675.652344 460.984375 674.917969 460.671875 C 674.1875 460.355469 673.46875 460.007812 672.769531 459.621094 C 672.070312 459.234375 671.394531 458.816406 670.734375 458.363281 C 670.078125 457.914062 669.441406 457.429688 668.832031 456.914062 C 668.222656 456.402344 667.636719 455.859375 667.082031 455.285156 C 666.523438 454.714844 665.996094 454.117188 665.496094 453.492188 C 665 452.871094 664.53125 452.222656 664.097656 451.554688 C 663.660156 450.882812 663.261719 450.195312 662.894531 449.488281 C 662.527344 448.777344 662.195312 448.050781 661.898438 447.3125 C 661.601562 446.570312 661.34375 445.816406 661.121094 445.046875 C 660.898438 444.28125 660.714844 443.507812 660.570312 442.722656 C 660.425781 441.9375 660.316406 441.144531 660.25 440.351562 C 660.183594 439.554688 660.152344 438.757812 660.164062 437.960938 C 660.171875 437.160156 660.222656 436.367188 660.3125 435.574219 C 660.398438 434.777344 660.527344 433.992188 660.691406 433.210938 C 660.859375 432.429688 661.0625 431.660156 661.304688 430.898438 C 661.546875 430.136719 661.824219 429.390625 662.136719 428.65625 C 662.453125 427.921875 662.804688 427.207031 663.1875 426.507812 C 663.574219 425.808594 663.992188 425.128906 664.445312 424.472656 C 664.898438 423.8125 665.378906 423.179688 665.894531 422.570312 C 666.410156 421.957031 666.953125 421.375 667.523438 420.816406 L 737.347656 352.765625 C 737.917969 352.207031 738.515625 351.679688 739.140625 351.183594 C 739.761719 350.683594 740.410156 350.21875 741.078125 349.78125 C 741.746094 349.347656 742.4375 348.945312 743.144531 348.578125 C 743.855469 348.210938 744.578125 347.878906 745.320312 347.582031 C 746.0625 347.289062 746.816406 347.027344 747.582031 346.808594 C 748.351562 346.585938 749.125 346.402344 749.910156 346.253906 C 750.695312 346.109375 751.484375 346.003906 752.28125 345.933594 C 753.078125 345.867188 753.875 345.839844 754.671875 345.847656 C 755.46875 345.859375 756.265625 345.90625 757.058594 345.996094 C 757.851562 346.085938 758.640625 346.210938 759.421875 346.378906 C 760.203125 346.542969 760.972656 346.746094 761.734375 346.988281 C 762.496094 347.230469 763.242188 347.507812 763.976562 347.824219 C 764.707031 348.136719 765.425781 348.488281 766.125 348.875 C 766.824219 349.257812 767.503906 349.679688 768.160156 350.128906 C 768.816406 350.582031 769.453125 351.066406 770.0625 351.578125 C 770.671875 352.09375 771.257812 352.636719 771.816406 353.207031 C 772.371094 353.78125 772.898438 354.378906 773.398438 355 C 773.898438 355.625 774.363281 356.269531 774.796875 356.941406 C 775.234375 357.609375 775.632812 358.300781 776 359.007812 C 776.367188 359.71875 776.699219 360.441406 776.996094 361.183594 C 777.292969 361.925781 777.550781 362.679688 777.773438 363.445312 C 777.996094 364.210938 778.179688 364.988281 778.324219 365.773438 C 778.46875 366.558594 778.578125 367.347656 778.644531 368.144531 C 778.714844 368.941406 778.742188 369.734375 778.730469 370.535156 C 778.722656 371.332031 778.671875 372.128906 778.582031 372.921875 C 778.496094 373.714844 778.367188 374.503906 778.203125 375.285156 C 778.035156 376.0625 777.832031 376.835938 777.589844 377.597656 C 777.351562 378.355469 777.070312 379.105469 776.757812 379.835938 C 776.441406 380.570312 776.089844 381.289062 775.707031 381.988281 C 775.320312 382.6875 774.902344 383.363281 774.449219 384.023438 C 774 384.679688 773.515625 385.316406 773 385.925781 C 772.488281 386.535156 771.945312 387.121094 771.371094 387.675781 Z M 631.726562 523.78125 L 561.902344 591.832031 C 561.332031 592.390625 560.734375 592.917969 560.109375 593.414062 C 559.488281 593.914062 558.839844 594.382812 558.171875 594.816406 C 557.503906 595.25 556.8125 595.652344 556.105469 596.019531 C 555.394531 596.386719 554.671875 596.71875 553.929688 597.015625 C 553.1875 597.308594 552.433594 597.570312 551.667969 597.792969 C 550.898438 598.011719 550.125 598.195312 549.339844 598.34375 C 548.554688 598.488281 547.761719 598.59375 546.96875 598.664062 C 546.171875 598.730469 545.375 598.761719 544.578125 598.75 C 543.78125 598.738281 542.984375 598.691406 542.191406 598.601562 C 541.398438 598.511719 540.609375 598.386719 539.828125 598.21875 C 539.046875 598.054688 538.277344 597.851562 537.515625 597.609375 C 536.753906 597.367188 536.007812 597.089844 535.273438 596.773438 C 534.539062 596.460938 533.824219 596.109375 533.125 595.722656 C 532.425781 595.339844 531.746094 594.921875 531.089844 594.46875 C 530.429688 594.015625 529.796875 593.53125 529.1875 593.019531 C 528.574219 592.503906 527.992188 591.960938 527.433594 591.390625 C 526.878906 590.816406 526.351562 590.21875 525.851562 589.597656 C 525.351562 588.972656 524.886719 588.328125 524.453125 587.65625 C 524.015625 586.988281 523.617188 586.296875 523.25 585.589844 C 522.882812 584.882812 522.550781 584.15625 522.253906 583.414062 C 521.957031 582.671875 521.699219 581.917969 521.476562 581.152344 C 521.253906 580.386719 521.070312 579.609375 520.925781 578.824219 C 520.78125 578.039062 520.671875 577.25 520.605469 576.453125 C 520.535156 575.660156 520.507812 574.863281 520.519531 574.0625 C 520.527344 573.265625 520.578125 572.46875 520.664062 571.675781 C 520.753906 570.882812 520.882812 570.09375 521.046875 569.316406 C 521.214844 568.535156 521.417969 567.761719 521.65625 567.003906 C 521.898438 566.242188 522.179688 565.492188 522.492188 564.761719 C 522.808594 564.027344 523.15625 563.308594 523.542969 562.609375 C 523.929688 561.910156 524.347656 561.234375 524.800781 560.574219 C 525.25 559.917969 525.734375 559.28125 526.25 558.671875 C 526.761719 558.0625 527.304688 557.476562 527.878906 556.921875 L 597.699219 488.871094 C 598.273438 488.3125 598.871094 487.785156 599.492188 487.285156 C 600.117188 486.789062 600.761719 486.320312 601.433594 485.886719 C 602.101562 485.449219 602.792969 485.050781 603.5 484.683594 C 604.210938 484.316406 604.933594 483.984375 605.675781 483.6875 C 606.417969 483.390625 607.171875 483.132812 607.9375 482.910156 C 608.703125 482.6875 609.480469 482.503906 610.265625 482.359375 C 611.050781 482.214844 611.839844 482.105469 612.636719 482.039062 C 613.429688 481.96875 614.226562 481.941406 615.027344 481.953125 C 615.824219 481.960938 616.621094 482.011719 617.414062 482.101562 C 618.207031 482.1875 618.996094 482.316406 619.777344 482.480469 C 620.554688 482.648438 621.328125 482.851562 622.089844 483.09375 C 622.847656 483.332031 623.597656 483.613281 624.328125 483.925781 C 625.0625 484.242188 625.78125 484.59375 626.480469 484.976562 C 627.179688 485.363281 627.855469 485.78125 628.515625 486.234375 C 629.171875 486.683594 629.808594 487.167969 630.417969 487.683594 C 631.027344 488.199219 631.613281 488.742188 632.167969 489.3125 C 632.726562 489.882812 633.253906 490.480469 633.753906 491.105469 C 634.25 491.726562 634.71875 492.375 635.152344 493.042969 C 635.585938 493.714844 635.988281 494.402344 636.355469 495.113281 C 636.722656 495.820312 637.054688 496.546875 637.351562 497.285156 C 637.648438 498.027344 637.90625 498.78125 638.128906 499.550781 C 638.351562 500.316406 638.535156 501.09375 638.679688 501.878906 C 638.824219 502.660156 638.933594 503.453125 639 504.246094 C 639.066406 505.042969 639.097656 505.839844 639.085938 506.636719 C 639.078125 507.4375 639.027344 508.230469 638.9375 509.027344 C 638.851562 509.820312 638.722656 510.605469 638.558594 511.386719 C 638.390625 512.167969 638.1875 512.9375 637.945312 513.699219 C 637.703125 514.460938 637.425781 515.207031 637.113281 515.941406 C 636.796875 516.675781 636.445312 517.390625 636.0625 518.089844 C 635.675781 518.789062 635.257812 519.46875 634.804688 520.125 C 634.351562 520.785156 633.871094 521.417969 633.355469 522.027344 C 632.839844 522.640625 632.296875 523.222656 631.726562 523.78125 Z M 492.082031 659.882812 L 422.257812 727.9375 C 421.6875 728.492188 421.089844 729.019531 420.464844 729.519531 C 419.839844 730.019531 419.195312 730.484375 418.527344 730.917969 C 417.855469 731.355469 417.167969 731.753906 416.457031 732.121094 C 415.75 732.488281 415.023438 732.820312 414.285156 733.117188 C 413.542969 733.414062 412.789062 733.671875 412.019531 733.894531 C 411.253906 734.117188 410.476562 734.300781 409.691406 734.445312 C 408.910156 734.589844 408.117188 734.699219 407.324219 734.765625 C 406.527344 734.835938 405.730469 734.863281 404.933594 734.851562 C 404.132812 734.84375 403.339844 734.792969 402.546875 734.703125 C 401.75 734.617188 400.964844 734.488281 400.183594 734.324219 C 399.402344 734.15625 398.632812 733.953125 397.871094 733.710938 C 397.109375 733.472656 396.363281 733.191406 395.628906 732.878906 C 394.894531 732.5625 394.179688 732.214844 393.480469 731.828125 C 392.78125 731.441406 392.101562 731.023438 391.445312 730.570312 C 390.785156 730.121094 390.152344 729.636719 389.542969 729.121094 C 388.929688 728.609375 388.347656 728.066406 387.789062 727.492188 C 387.234375 726.921875 386.703125 726.324219 386.207031 725.699219 C 385.707031 725.078125 385.242188 724.429688 384.804688 723.761719 C 384.371094 723.089844 383.96875 722.402344 383.601562 721.695312 C 383.234375 720.984375 382.902344 720.257812 382.609375 719.519531 C 382.3125 718.777344 382.054688 718.023438 381.832031 717.253906 C 381.609375 716.488281 381.425781 715.714844 381.28125 714.929688 C 381.132812 714.144531 381.027344 713.351562 380.960938 712.558594 C 380.890625 711.761719 380.863281 710.964844 380.871094 710.167969 C 380.882812 709.367188 380.933594 708.574219 381.019531 707.78125 C 381.109375 706.984375 381.234375 706.199219 381.402344 705.417969 C 381.566406 704.636719 381.769531 703.867188 382.011719 703.105469 C 382.253906 702.34375 382.53125 701.597656 382.847656 700.863281 C 383.164062 700.128906 383.511719 699.414062 383.898438 698.714844 C 384.28125 698.015625 384.703125 697.335938 385.152344 696.679688 C 385.605469 696.019531 386.089844 695.386719 386.601562 694.777344 C 387.117188 694.164062 387.660156 693.582031 388.234375 693.023438 L 458.054688 624.972656 C 458.625 624.414062 459.222656 623.886719 459.847656 623.390625 C 460.472656 622.890625 461.117188 622.425781 461.789062 621.988281 C 462.457031 621.554688 463.144531 621.152344 463.855469 620.785156 C 464.5625 620.417969 465.289062 620.085938 466.03125 619.789062 C 466.773438 619.496094 467.527344 619.234375 468.292969 619.015625 C 469.058594 618.792969 469.835938 618.609375 470.621094 618.460938 C 471.40625 618.316406 472.195312 618.210938 472.992188 618.140625 C 473.785156 618.074219 474.582031 618.046875 475.382812 618.054688 C 476.179688 618.066406 476.976562 618.113281 477.769531 618.203125 C 478.5625 618.292969 479.347656 618.417969 480.128906 618.585938 C 480.910156 618.75 481.683594 618.953125 482.441406 619.195312 C 483.203125 619.4375 483.949219 619.714844 484.683594 620.03125 C 485.417969 620.34375 486.132812 620.695312 486.832031 621.082031 C 487.53125 621.464844 488.210938 621.886719 488.871094 622.335938 C 489.527344 622.789062 490.160156 623.273438 490.773438 623.785156 C 491.382812 624.300781 491.964844 624.84375 492.523438 625.414062 C 493.082031 625.988281 493.609375 626.585938 494.105469 627.207031 C 494.605469 627.832031 495.074219 628.476562 495.507812 629.148438 C 495.941406 629.816406 496.34375 630.507812 496.710938 631.214844 C 497.078125 631.925781 497.410156 632.648438 497.707031 633.390625 C 498 634.132812 498.261719 634.886719 498.480469 635.652344 C 498.703125 636.417969 498.886719 637.195312 499.035156 637.980469 C 499.179688 638.765625 499.285156 639.554688 499.355469 640.351562 C 499.421875 641.144531 499.453125 641.941406 499.441406 642.742188 C 499.429688 643.539062 499.382812 644.335938 499.292969 645.128906 C 499.203125 645.921875 499.078125 646.710938 498.910156 647.492188 C 498.746094 648.269531 498.542969 649.042969 498.300781 649.804688 C 498.058594 650.5625 497.78125 651.3125 497.464844 652.042969 C 497.152344 652.777344 496.800781 653.496094 496.414062 654.195312 C 496.03125 654.894531 495.613281 655.570312 495.160156 656.230469 C 494.707031 656.886719 494.222656 657.523438 493.710938 658.132812 C 493.195312 658.742188 492.652344 659.328125 492.082031 659.882812 Z M 492.082031 659.882812 "/></g></svg>