<svg xmlns="http://www.w3.org/2000/svg" xmlns:xlink="http://www.w3.org/1999/xlink" width="1920" zoomAndPan="magnify" viewBox="0 0 1440 809.999993" height="1080" preserveAspectRatio="xMidYMid meet" version="1.2"><defs><clipPath id="270c0ed9c7"><path d="M 81 410.867188 L 1359 410.867188 L 1359 810 L 81 810 Z M 81 410.867188 "/></clipPath><clipPath id="b319447e6d"><path d="M 1359 485.867188 L 1359 824.214844 C 1359 865.636719 1325.421875 899.214844 1284 899.214844 L 156 899.214844 C 114.578125 899.214844 81 865.636719 81 824.214844 L 81 485.867188 C 81 444.445312 114.578125 410.867188 156 410.867188 L 1284 410.867188 C 1325.421875 410.867188 1359 444.445312 1359 485.867188 Z M 1359 485.867188 "/></clipPath><clipPath id="3ebc576507"><path d="M 503.304688 155 L 936.804688 155 L 936.804688 728.726562 L 503.304688 728.726562 Z M 503.304688 155 "/></clipPath><clipPath id="3a9d3b35ba"><path d="M 573.394531 229.0625 L 866.644531 229.0625 L 866.644531 426.3125 L 573.394531 426.3125 Z M 573.394531 229.0625 "/></clipPath><clipPath id="9ae0b37978"><path d="M 579.492188 245.539062 L 860.546875 245.539062 L 860.546875 434.585938 L 579.492188 434.585938 Z M 579.492188 245.539062 "/></clipPath><linearGradient x1="3.378999" gradientTransform="matrix(1,0.0000000360899,-0.0000000360899,1,-0.00000236481,0.000032499)" y1="61.459999" x2="644.269182" gradientUnits="userSpaceOnUse" y2="61.459999" id="8bf5c19771"><stop style="stop-color:#4b4b4b;stop-opacity:1;" offset="0"/><stop style="stop-color:#4c4c4c;stop-opacity:1;" offset="0.00390625"/><stop style="stop-color:#4d4d4d;stop-opacity:1;" offset="0.0078125"/><stop style="stop-color:#4e4e4e;stop-opacity:1;" offset="0.0117187"/><stop style="stop-color:#505050;stop-opacity:1;" offset="0.015625"/><stop style="stop-color:#515151;stop-opacity:1;" offset="0.0195312"/><stop style="stop-color:#525252;stop-opacity:1;" offset="0.0234375"/><stop style="stop-color:#535353;stop-opacity:1;" offset="0.0273437"/><stop style="stop-color:#545454;stop-opacity:1;" offset="0.03125"/><stop style="stop-color:#555555;stop-opacity:1;" offset="0.0351562"/><stop style="stop-color:#565656;stop-opacity:1;" offset="0.0390625"/><stop style="stop-color:#575757;stop-opacity:1;" offset="0.0429688"/><stop style="stop-color:#585858;stop-opacity:1;" offset="0.046875"/><stop style="stop-color:#595959;stop-opacity:1;" offset="0.0507812"/><stop style="stop-color:#5a5a5a;stop-opacity:1;" offset="0.0546875"/><stop style="stop-color:#5b5b5b;stop-opacity:1;" offset="0.0585937"/><stop style="stop-color:#5c5c5c;stop-opacity:1;" offset="0.0625"/><stop style="stop-color:#5d5d5d;stop-opacity:1;" offset="0.0664063"/><stop style="stop-color:#5e5e5e;stop-opacity:1;" offset="0.0703125"/><stop style="stop-color:#5f5f5f;stop-opacity:1;" offset="0.0742188"/><stop style="stop-color:#606060;stop-opacity:1;" offset="0.078125"/><stop style="stop-color:#616161;stop-opacity:1;" offset="0.0820312"/><stop style="stop-color:#626262;stop-opacity:1;" offset="0.0859375"/><stop style="stop-color:#636363;stop-opacity:1;" offset="0.0898438"/><stop style="stop-color:#646464;stop-opacity:1;" offset="0.09375"/><stop style="stop-color:#656565;stop-opacity:1;" offset="0.0976562"/><stop style="stop-color:#676767;stop-opacity:1;" offset="0.101562"/><stop style="stop-color:#686868;stop-opacity:1;" offset="0.105469"/><stop style="stop-color:#696969;stop-opacity:1;" offset="0.109375"/><stop style="stop-color:#6a6a6a;stop-opacity:1;" offset="0.113281"/><stop style="stop-color:#6b6b6b;stop-opacity:1;" offset="0.117188"/><stop style="stop-color:#6c6c6c;stop-opacity:1;" offset="0.121094"/><stop style="stop-color:#6d6d6d;stop-opacity:1;" offset="0.125"/><stop style="stop-color:#6e6e6e;stop-opacity:1;" offset="0.128906"/><stop style="stop-color:#6f6f6f;stop-opacity:1;" offset="0.132812"/><stop style="stop-color:#707070;stop-opacity:1;" offset="0.136719"/><stop style="stop-color:#717171;stop-opacity:1;" offset="0.140625"/><stop style="stop-color:#727272;stop-opacity:1;" offset="0.144531"/><stop style="stop-color:#737373;stop-opacity:1;" offset="0.148437"/><stop style="stop-color:#747474;stop-opacity:1;" offset="0.152344"/><stop style="stop-color:#757575;stop-opacity:1;" offset="0.15625"/><stop style="stop-color:#767676;stop-opacity:1;" offset="0.160156"/><stop style="stop-color:#777777;stop-opacity:1;" offset="0.164062"/><stop style="stop-color:#787878;stop-opacity:1;" offset="0.167969"/><stop style="stop-color:#797979;stop-opacity:1;" offset="0.171875"/><stop style="stop-color:#7a7a7a;stop-opacity:1;" offset="0.175781"/><stop style="stop-color:#7b7b7b;stop-opacity:1;" offset="0.179687"/><stop style="stop-color:#7c7c7c;stop-opacity:1;" offset="0.183594"/><stop style="stop-color:#7e7e7e;stop-opacity:1;" offset="0.1875"/><stop style="stop-color:#7f7f7f;stop-opacity:1;" offset="0.191406"/><stop style="stop-color:#808080;stop-opacity:1;" offset="0.195312"/><stop style="stop-color:#818181;stop-opacity:1;" offset="0.199219"/><stop style="stop-color:#828282;stop-opacity:1;" offset="0.203125"/><stop style="stop-color:#838383;stop-opacity:1;" offset="0.207031"/><stop style="stop-color:#848484;stop-opacity:1;" offset="0.210937"/><stop style="stop-color:#858585;stop-opacity:1;" offset="0.214844"/><stop style="stop-color:#868686;stop-opacity:1;" offset="0.21875"/><stop style="stop-color:#878787;stop-opacity:1;" offset="0.222656"/><stop style="stop-color:#888888;stop-opacity:1;" offset="0.226562"/><stop style="stop-color:#898989;stop-opacity:1;" offset="0.230469"/><stop style="stop-color:#8a8a8a;stop-opacity:1;" offset="0.234375"/><stop style="stop-color:#8b8b8b;stop-opacity:1;" offset="0.238281"/><stop style="stop-color:#8c8c8c;stop-opacity:1;" offset="0.242187"/><stop style="stop-color:#8d8d8d;stop-opacity:1;" offset="0.246094"/><stop style="stop-color:#8e8e8e;stop-opacity:1;" offset="0.25"/><stop style="stop-color:#8f8f8f;stop-opacity:1;" offset="0.253906"/><stop style="stop-color:#909090;stop-opacity:1;" offset="0.257812"/><stop style="stop-color:#919191;stop-opacity:1;" offset="0.261719"/><stop style="stop-color:#929292;stop-opacity:1;" offset="0.265625"/><stop style="stop-color:#939393;stop-opacity:1;" offset="0.269531"/><stop style="stop-color:#959595;stop-opacity:1;" offset="0.273437"/><stop style="stop-color:#969696;stop-opacity:1;" offset="0.277344"/><stop style="stop-color:#979797;stop-opacity:1;" offset="0.28125"/><stop style="stop-color:#989898;stop-opacity:1;" offset="0.285156"/><stop style="stop-color:#999999;stop-opacity:1;" offset="0.289062"/><stop style="stop-color:#9a9a9a;stop-opacity:1;" offset="0.292969"/><stop style="stop-color:#9b9b9b;stop-opacity:1;" offset="0.296875"/><stop style="stop-color:#9c9c9c;stop-opacity:1;" offset="0.300781"/><stop style="stop-color:#9d9d9d;stop-opacity:1;" offset="0.304688"/><stop style="stop-color:#9e9e9e;stop-opacity:1;" offset="0.308594"/><stop style="stop-color:#9f9f9f;stop-opacity:1;" offset="0.3125"/><stop style="stop-color:#a0a0a0;stop-opacity:1;" offset="0.316406"/><stop style="stop-color:#a1a1a1;stop-opacity:1;" offset="0.320312"/><stop style="stop-color:#a2a2a2;stop-opacity:1;" offset="0.324219"/><stop style="stop-color:#a3a3a3;stop-opacity:1;" offset="0.328125"/><stop style="stop-color:#a4a4a4;stop-opacity:1;" offset="0.34375"/><stop style="stop-color:#a4a4a4;stop-opacity:1;" offset="0.375"/><stop style="stop-color:#a4a4a4;stop-opacity:1;" offset="0.5"/><stop style="stop-color:#a4a4a4;stop-opacity:1;" offset="1"/></linearGradient><clipPath id="0bfe9b937a"><path d="M 880 0 L 1440 0 L 1440 201 L 880 201 Z M 880 0 "/></clipPath><clipPath id="c1f9615a36"><path d="M 1504.578125 -27.035156 L 921.03125 228.320312 L 844.121094 52.566406 L 1427.667969 -202.785156 Z M 1504.578125 -27.035156 "/></clipPath><clipPath id="79b74ddbf8"><path d="M 991.492188 197.484375 L 1484.652344 -18.316406 C 1489.933594 -20.628906 1494.085938 -24.945312 1496.1875 -30.316406 C 1498.289062 -35.691406 1498.167969 -41.675781 1495.855469 -46.960938 L 1436.390625 -182.859375 C 1434.078125 -188.144531 1429.757812 -192.292969 1424.386719 -194.394531 C 1419.015625 -196.496094 1413.027344 -196.378906 1407.742188 -194.066406 L 914.585938 21.734375 C 902.179688 27.164062 893.417969 38.566406 891.367188 51.953125 L 880.753906 121.183594 C 878.742188 134.308594 884.480469 147.421875 895.488281 154.851562 L 953.539062 194.035156 C 964.765625 201.613281 979.085938 202.914062 991.492188 197.484375 Z M 991.492188 197.484375 "/></clipPath><clipPath id="4fdd4d1b1d"><path d="M 1504.578125 -27.035156 L 916.222656 230.421875 L 839.316406 54.671875 L 1427.667969 -202.785156 Z M 1504.578125 -27.035156 "/></clipPath><clipPath id="46bc1dd2d4"><path d="M 1504.582031 -27.039062 L 921.996094 227.894531 L 845.128906 52.234375 L 1427.714844 -202.699219 Z M 1504.582031 -27.039062 "/></clipPath><linearGradient x1="424.517" gradientTransform="matrix(-0.686175,0.300264,-0.300264,-0.686175,1504.581663,-27.03807)" y1="-246.696429" x2="424.517" gradientUnits="userSpaceOnUse" y2="301.899099" id="6db1c0e6b5"><stop style="stop-color:#888888;stop-opacity:1;" offset="0"/><stop style="stop-color:#888888;stop-opacity:1;" offset="0.25"/><stop style="stop-color:#888888;stop-opacity:1;" offset="0.375"/><stop style="stop-color:#888888;stop-opacity:1;" offset="0.4375"/><stop style="stop-color:#888888;stop-opacity:1;" offset="0.445313"/><stop style="stop-color:#898989;stop-opacity:1;" offset="0.449219"/><stop style="stop-color:#8a8a8a;stop-opacity:1;" offset="0.453125"/><stop style="stop-color:#8c8c8c;stop-opacity:1;" offset="0.457031"/><stop style="stop-color:#8f8f8f;stop-opacity:1;" offset="0.460938"/><stop style="stop-color:#919191;stop-opacity:1;" offset="0.464844"/><stop style="stop-color:#939393;stop-opacity:1;" offset="0.46875"/><stop style="stop-color:#969696;stop-opacity:1;" offset="0.472656"/><stop style="stop-color:#989898;stop-opacity:1;" offset="0.476562"/><stop style="stop-color:#9a9a9a;stop-opacity:1;" offset="0.480469"/><stop style="stop-color:#9c9c9c;stop-opacity:1;" offset="0.484375"/><stop style="stop-color:#9f9f9f;stop-opacity:1;" offset="0.488281"/><stop style="stop-color:#a1a1a1;stop-opacity:1;" offset="0.492188"/><stop style="stop-color:#a3a3a3;stop-opacity:1;" offset="0.496094"/><stop style="stop-color:#a6a6a6;stop-opacity:1;" offset="0.5"/><stop style="stop-color:#a8a8a8;stop-opacity:1;" offset="0.503906"/><stop style="stop-color:#aaaaaa;stop-opacity:1;" offset="0.507813"/><stop style="stop-color:#adadad;stop-opacity:1;" offset="0.511719"/><stop style="stop-color:#afafaf;stop-opacity:1;" offset="0.515625"/><stop style="stop-color:#b1b1b1;stop-opacity:1;" offset="0.519531"/><stop style="stop-color:#b4b4b4;stop-opacity:1;" offset="0.523438"/><stop style="stop-color:#b6b6b6;stop-opacity:1;" offset="0.527344"/><stop style="stop-color:#b8b8b8;stop-opacity:1;" offset="0.53125"/><stop style="stop-color:#bbbbbb;stop-opacity:1;" offset="0.535156"/><stop style="stop-color:#bdbdbd;stop-opacity:1;" offset="0.539063"/><stop style="stop-color:#bfbfbf;stop-opacity:1;" offset="0.542969"/><stop style="stop-color:#c1c1c1;stop-opacity:1;" offset="0.546875"/><stop style="stop-color:#c4c4c4;stop-opacity:1;" offset="0.550781"/><stop style="stop-color:#c6c6c6;stop-opacity:1;" offset="0.554688"/><stop style="stop-color:#c8c8c8;stop-opacity:1;" offset="0.558594"/><stop style="stop-color:#cbcbcb;stop-opacity:1;" offset="0.5625"/><stop style="stop-color:#cccccc;stop-opacity:1;" offset="0.566406"/><stop style="stop-color:#cecece;stop-opacity:1;" offset="0.570312"/><stop style="stop-color:#cfcfcf;stop-opacity:1;" offset="0.574219"/><stop style="stop-color:#d0d0d0;stop-opacity:1;" offset="0.578125"/><stop style="stop-color:#d1d1d1;stop-opacity:1;" offset="0.582031"/><stop style="stop-color:#d2d2d2;stop-opacity:1;" offset="0.585938"/><stop style="stop-color:#d3d3d3;stop-opacity:1;" offset="0.589844"/><stop style="stop-color:#d4d4d4;stop-opacity:1;" offset="0.59375"/><stop style="stop-color:#d5d5d5;stop-opacity:1;" offset="0.597656"/><stop style="stop-color:#d6d6d6;stop-opacity:1;" offset="0.601563"/><stop style="stop-color:#d7d7d7;stop-opacity:1;" offset="0.605469"/><stop style="stop-color:#d8d8d8;stop-opacity:1;" offset="0.609375"/><stop style="stop-color:#d9d9d9;stop-opacity:1;" offset="0.613281"/><stop style="stop-color:#dadada;stop-opacity:1;" offset="0.617188"/><stop style="stop-color:#dbdbdb;stop-opacity:1;" offset="0.621094"/><stop style="stop-color:#dcdcdc;stop-opacity:1;" offset="0.625"/><stop style="stop-color:#dddddd;stop-opacity:1;" offset="0.628906"/><stop style="stop-color:#dedede;stop-opacity:1;" offset="0.632813"/><stop style="stop-color:#dfdfdf;stop-opacity:1;" offset="0.636719"/><stop style="stop-color:#e0e0e0;stop-opacity:1;" offset="0.640625"/><stop style="stop-color:#e0e0e0;stop-opacity:1;" offset="0.644531"/><stop style="stop-color:#e1e1e1;stop-opacity:1;" offset="0.648438"/><stop style="stop-color:#e2e2e2;stop-opacity:1;" offset="0.652344"/><stop style="stop-color:#e3e3e3;stop-opacity:1;" offset="0.65625"/><stop style="stop-color:#e4e4e4;stop-opacity:1;" offset="0.660156"/><stop style="stop-color:#e5e5e5;stop-opacity:1;" offset="0.664063"/><stop style="stop-color:#e6e6e6;stop-opacity:1;" offset="0.667969"/><stop style="stop-color:#e7e7e7;stop-opacity:1;" offset="0.671875"/><stop style="stop-color:#e8e8e8;stop-opacity:1;" offset="0.675781"/><stop style="stop-color:#e9e9e9;stop-opacity:1;" offset="0.679688"/><stop style="stop-color:#e9e9e9;stop-opacity:1;" offset="0.6875"/><stop style="stop-color:#e8e8e8;stop-opacity:1;" offset="0.691406"/><stop style="stop-color:#e7e7e7;stop-opacity:1;" offset="0.695313"/><stop style="stop-color:#e6e6e6;stop-opacity:1;" offset="0.699219"/><stop style="stop-color:#e5e5e5;stop-opacity:1;" offset="0.703125"/><stop style="stop-color:#e4e4e4;stop-opacity:1;" offset="0.707031"/><stop style="stop-color:#e3e3e3;stop-opacity:1;" offset="0.710938"/><stop style="stop-color:#e2e2e2;stop-opacity:1;" offset="0.714844"/><stop style="stop-color:#e1e1e1;stop-opacity:1;" offset="0.71875"/><stop style="stop-color:#e0e0e0;stop-opacity:1;" offset="0.722656"/><stop style="stop-color:#dfdfdf;stop-opacity:1;" offset="0.726562"/><stop style="stop-color:#dedede;stop-opacity:1;" offset="0.730469"/><stop style="stop-color:#dddddd;stop-opacity:1;" offset="0.734375"/><stop style="stop-color:#dcdcdc;stop-opacity:1;" offset="0.738281"/><stop style="stop-color:#dbdbdb;stop-opacity:1;" offset="0.742188"/><stop style="stop-color:#dadada;stop-opacity:1;" offset="0.746094"/><stop style="stop-color:#d9d9d9;stop-opacity:1;" offset="0.75"/><stop style="stop-color:#d8d8d8;stop-opacity:1;" offset="0.753906"/><stop style="stop-color:#d7d7d7;stop-opacity:1;" offset="0.757813"/><stop style="stop-color:#d6d6d6;stop-opacity:1;" offset="0.761719"/><stop style="stop-color:#d6d6d6;stop-opacity:1;" offset="0.765625"/><stop style="stop-color:#d5d5d5;stop-opacity:1;" offset="0.769531"/><stop style="stop-color:#d4d4d4;stop-opacity:1;" offset="0.773438"/><stop style="stop-color:#d3d3d3;stop-opacity:1;" offset="0.777344"/><stop style="stop-color:#d2d2d2;stop-opacity:1;" offset="0.78125"/><stop style="stop-color:#d1d1d1;stop-opacity:1;" offset="0.785156"/><stop style="stop-color:#d0d0d0;stop-opacity:1;" offset="0.789063"/><stop style="stop-color:#cfcfcf;stop-opacity:1;" offset="0.792969"/><stop style="stop-color:#cecece;stop-opacity:1;" offset="0.796875"/><stop style="stop-color:#cccccc;stop-opacity:1;" offset="0.800781"/><stop style="stop-color:#cacaca;stop-opacity:1;" offset="0.804688"/><stop style="stop-color:#c8c8c8;stop-opacity:1;" offset="0.808594"/><stop style="stop-color:#c5c5c5;stop-opacity:1;" offset="0.8125"/><stop style="stop-color:#c3c3c3;stop-opacity:1;" offset="0.816406"/><stop style="stop-color:#c1c1c1;stop-opacity:1;" offset="0.820313"/><stop style="stop-color:#bebebe;stop-opacity:1;" offset="0.824219"/><stop style="stop-color:#bcbcbc;stop-opacity:1;" offset="0.828125"/><stop style="stop-color:#bababa;stop-opacity:1;" offset="0.832031"/><stop style="stop-color:#b8b8b8;stop-opacity:1;" offset="0.835938"/><stop style="stop-color:#b5b5b5;stop-opacity:1;" offset="0.839844"/><stop style="stop-color:#b3b3b3;stop-opacity:1;" offset="0.84375"/><stop style="stop-color:#b1b1b1;stop-opacity:1;" offset="0.847656"/><stop style="stop-color:#aeaeae;stop-opacity:1;" offset="0.851563"/><stop style="stop-color:#acacac;stop-opacity:1;" offset="0.855469"/><stop style="stop-color:#aaaaaa;stop-opacity:1;" offset="0.859375"/><stop style="stop-color:#a7a7a7;stop-opacity:1;" offset="0.863281"/><stop style="stop-color:#a5a5a5;stop-opacity:1;" offset="0.867188"/><stop style="stop-color:#a3a3a3;stop-opacity:1;" offset="0.871094"/><stop style="stop-color:#a0a0a0;stop-opacity:1;" offset="0.875"/><stop style="stop-color:#9e9e9e;stop-opacity:1;" offset="0.878906"/><stop style="stop-color:#9c9c9c;stop-opacity:1;" offset="0.882813"/><stop style="stop-color:#999999;stop-opacity:1;" offset="0.886719"/><stop style="stop-color:#979797;stop-opacity:1;" offset="0.890625"/><stop style="stop-color:#959595;stop-opacity:1;" offset="0.894531"/><stop style="stop-color:#939393;stop-opacity:1;" offset="0.898438"/><stop style="stop-color:#909090;stop-opacity:1;" offset="0.902344"/><stop style="stop-color:#8e8e8e;stop-opacity:1;" offset="0.90625"/><stop style="stop-color:#8c8c8c;stop-opacity:1;" offset="0.910156"/><stop style="stop-color:#898989;stop-opacity:1;" offset="0.914062"/><stop style="stop-color:#898989;stop-opacity:1;" offset="0.917969"/><stop style="stop-color:#888888;stop-opacity:1;" offset="0.921875"/><stop style="stop-color:#888888;stop-opacity:1;" offset="0.9375"/><stop style="stop-color:#888888;stop-opacity:1;" offset="1"/></linearGradient></defs><g id="a992220157"><rect x="0" width="1440" y="0" height="809.999993" style="fill:#ffffff;fill-opacity:1;stroke:none;"/><rect x="0" width="1440" y="0" height="809.999993" style="fill:#ffffff;fill-opacity:1;stroke:none;"/><g clip-rule="nonzero" clip-path="url(#270c0ed9c7)"><g clip-rule="nonzero" clip-path="url(#b319447e6d)"><path style=" stroke:none;fill-rule:nonzero;fill:#ffaade;fill-opacity:1;" d="M 81 410.867188 L 1359.09375 410.867188 L 1359.09375 899.214844 L 81 899.214844 Z M 81 410.867188 "/></g></g><g clip-rule="nonzero" clip-path="url(#3ebc576507)"><path style=" stroke:none;fill-rule:nonzero;fill:#eaeaea;fill-opacity:1;" d="M 914.492188 192.386719 C 891.269531 159.625 851.65625 149.160156 813.632812 158.714844 C 801.109375 161.902344 788.816406 165.539062 776.75 169.636719 C 757.851562 176.234375 738.953125 179.417969 720.054688 179.417969 C 701.160156 179.417969 682.261719 176.234375 663.363281 169.636719 C 651.296875 165.539062 638.773438 161.671875 626.480469 158.714844 C 588.457031 149.160156 548.84375 159.625 525.617188 192.386719 C 501.257812 226.511719 497.84375 275.199219 510.820312 314.332031 C 529.945312 371.210938 559.769531 421.488281 556.128906 483.828125 C 552.257812 553.902344 554.535156 649.910156 595.742188 710.199219 C 609.40625 730.222656 636.042969 737.957031 648.566406 711.792969 C 664.273438 678.347656 660.175781 642.175781 656.078125 606.226562 C 651.980469 570.054688 648.109375 533.652344 664.730469 500.207031 C 676.113281 477.457031 694.554688 466.308594 720.054688 466.308594 C 745.554688 466.308594 764 477.457031 775.382812 500.207031 C 792.003906 533.878906 788.132812 570.054688 784.035156 606.226562 C 779.9375 642.175781 775.835938 678.347656 791.546875 711.792969 C 803.84375 737.957031 830.707031 730.222656 844.367188 710.199219 C 885.578125 649.910156 888.082031 553.902344 883.984375 483.828125 C 880.34375 421.488281 910.394531 371.4375 929.292969 314.332031 C 942.269531 275.199219 938.855469 226.511719 914.492188 192.386719 Z M 914.492188 192.386719 "/></g><g clip-rule="nonzero" clip-path="url(#3a9d3b35ba)"><path style=" stroke:none;fill-rule:nonzero;fill:#af5656;fill-opacity:1;" d="M 851.507812 254.382812 C 835.800781 232.207031 809.007812 225.121094 783.289062 231.589844 C 774.820312 233.746094 766.503906 236.210938 758.34375 238.980469 C 745.5625 243.449219 732.777344 245.605469 719.996094 245.605469 C 707.214844 245.605469 694.433594 243.449219 681.652344 238.980469 C 673.492188 236.210938 665.023438 233.59375 656.707031 231.589844 C 630.988281 225.121094 604.195312 232.207031 588.488281 254.382812 C 572.011719 277.480469 569.699219 310.433594 578.476562 336.921875 C 591.414062 375.421875 611.585938 409.453125 609.121094 451.648438 C 606.503906 499.078125 608.042969 564.0625 635.917969 604.871094 C 645.15625 618.421875 663.175781 623.65625 671.644531 605.949219 C 682.269531 583.3125 679.496094 558.824219 676.726562 534.496094 C 673.953125 510.011719 671.335938 485.371094 682.578125 462.734375 C 690.277344 447.335938 702.75 439.789062 719.996094 439.789062 C 737.246094 439.789062 749.71875 447.335938 757.417969 462.734375 C 768.660156 485.523438 766.042969 510.011719 763.269531 534.496094 C 760.496094 558.824219 757.726562 583.3125 768.351562 605.949219 C 776.667969 623.65625 794.839844 618.421875 804.078125 604.871094 C 831.949219 564.0625 833.644531 499.078125 830.871094 451.648438 C 828.410156 409.453125 848.734375 375.574219 861.515625 336.921875 C 870.296875 310.433594 867.984375 277.480469 851.507812 254.382812 Z M 851.507812 254.382812 "/></g><path style="fill:none;stroke-width:50;stroke-linecap:round;stroke-linejoin:miter;stroke:#af5656;stroke-opacity:1;stroke-miterlimit:4;" d="M 30.350897 30.10121 C 150.924601 55.283503 287.870189 54.897369 441.193003 28.927218 " transform="matrix(0.00635814,0.749574,-0.749574,0.00635814,642.967774,379.570079)"/><path style="fill:none;stroke-width:50;stroke-linecap:round;stroke-linejoin:miter;stroke:#af5656;stroke-opacity:1;stroke-miterlimit:4;" d="M 30.353202 30.101041 C 150.927724 55.286306 287.870323 54.895473 441.191422 28.928542 " transform="matrix(0,-0.749601,0.749601,0,791.561222,733.491079)"/><path style="fill:none;stroke-width:50;stroke-linecap:round;stroke-linejoin:miter;stroke:#af5656;stroke-opacity:1;stroke-miterlimit:4;" d="M 34.954201 33.91889 C 78.790175 51.906319 127.586264 51.307898 181.352453 32.117632 " transform="matrix(-0.632789,0.402589,-0.402589,-0.632789,743.969321,417.352271)"/><path style="fill:none;stroke-width:50;stroke-linecap:round;stroke-linejoin:miter;stroke:#af5656;stroke-opacity:1;stroke-miterlimit:4;" d="M 34.954238 33.917928 C 78.789317 51.904674 127.588221 51.306669 181.355435 32.121266 " transform="matrix(-0.645959,-0.381099,0.381099,-0.645959,824.043541,496.988443)"/><g clip-rule="nonzero" clip-path="url(#9ae0b37978)"><path style=" stroke:none;fill-rule:nonzero;fill:#cd5454;fill-opacity:1;" d="M 846.039062 269.804688 C 830.984375 248.550781 805.304688 241.761719 780.65625 247.960938 C 772.539062 250.027344 764.570312 252.390625 756.746094 255.046875 C 744.496094 259.324219 732.246094 261.390625 719.996094 261.390625 C 707.746094 261.390625 695.496094 259.324219 683.25 255.046875 C 675.425781 252.390625 667.308594 249.878906 659.339844 247.960938 C 634.691406 241.761719 609.011719 248.550781 593.957031 269.804688 C 578.164062 291.941406 575.949219 323.527344 584.363281 348.914062 C 596.761719 385.808594 616.09375 418.425781 613.734375 458.867188 C 611.222656 504.324219 612.699219 566.609375 639.414062 605.71875 C 648.269531 618.707031 665.539062 623.726562 673.65625 606.753906 C 683.839844 585.054688 681.183594 561.589844 678.523438 538.269531 C 675.867188 514.804688 673.359375 491.1875 684.132812 469.492188 C 691.511719 454.734375 703.46875 447.503906 719.996094 447.503906 C 736.527344 447.503906 748.484375 454.734375 755.863281 469.492188 C 766.636719 491.335938 764.128906 514.804688 761.46875 538.269531 C 758.8125 561.589844 756.15625 585.054688 766.339844 606.753906 C 774.3125 623.726562 791.726562 618.707031 800.582031 605.71875 C 827.296875 566.609375 828.917969 504.324219 826.261719 458.867188 C 823.902344 418.425781 843.382812 385.957031 855.632812 348.914062 C 864.046875 323.527344 861.832031 291.941406 846.039062 269.804688 Z M 846.039062 269.804688 "/></g><path style="fill:none;stroke-width:50;stroke-linecap:round;stroke-linejoin:miter;stroke:#cd5454;stroke-opacity:1;stroke-miterlimit:4;" d="M 30.35376 30.096714 C 150.926395 55.283232 287.87046 54.895181 441.191438 28.92717 " transform="matrix(0.00609375,0.718405,-0.718405,0.00609375,646.17103,389.787656)"/><path style="fill:none;stroke-width:50;stroke-linecap:round;stroke-linejoin:miter;stroke:#cd5454;stroke-opacity:1;stroke-miterlimit:4;" d="M 30.349535 30.100892 C 150.924851 55.285996 287.871572 54.894518 441.189698 28.926457 " transform="matrix(0,-0.718431,0.718431,0,788.585535,728.991535)"/><path style="fill:none;stroke-width:50;stroke-linecap:round;stroke-linejoin:miter;stroke:#cd5454;stroke-opacity:1;stroke-miterlimit:4;" d="M 34.956713 33.921772 C 78.788944 51.908757 127.589018 51.305435 181.3511 32.120978 " transform="matrix(-0.606476,0.385848,-0.385848,-0.606476,742.972649,425.998823)"/><path style="fill:none;stroke-width:50;stroke-linecap:round;stroke-linejoin:miter;stroke:#cd5454;stroke-opacity:1;stroke-miterlimit:4;" d="M 34.957194 33.92096 C 78.788398 51.906949 127.586847 51.308324 181.354463 32.117645 " transform="matrix(-0.619098,-0.365252,0.365252,-0.619098,819.717085,502.323283)"/><path style="fill:none;stroke-width:17;stroke-linecap:round;stroke-linejoin:miter;stroke:url(#8bf5c19771);stroke-miterlimit:4;" d="M 11.843019 111.14689 C 219.829052 -25.736724 427.81821 -25.716288 635.803136 111.207853 " transform="matrix(0.505042,-0.554466,0.554466,0.505042,547.805715,425.389679)"/><g clip-rule="nonzero" clip-path="url(#0bfe9b937a)"><g clip-rule="nonzero" clip-path="url(#c1f9615a36)"><g clip-rule="nonzero" clip-path="url(#79b74ddbf8)"><g clip-rule="nonzero" clip-path="url(#4fdd4d1b1d)"><g clip-rule="nonzero" clip-path="url(#46bc1dd2d4)"><path style=" stroke:none;fill-rule:nonzero;fill:url(#6db1c0e6b5);" d="M 1514.523438 170.304688 L 1349.800781 -206.128906 L 804.21875 32.609375 L 968.945312 409.042969 Z M 1514.523438 170.304688 "/></g></g></g></g></g></g></svg>