<svg xmlns="http://www.w3.org/2000/svg" xmlns:xlink="http://www.w3.org/1999/xlink" width="1920" zoomAndPan="magnify" viewBox="0 0 1440 809.999993" height="1080" preserveAspectRatio="xMidYMid meet" version="1.2"><defs><clipPath id="baa25628fc"><path d="M 81 410.867188 L 1359 410.867188 L 1359 810 L 81 810 Z M 81 410.867188 "/></clipPath><clipPath id="129707cad6"><path d="M 1359 485.867188 L 1359 824.214844 C 1359 865.636719 1325.421875 899.214844 1284 899.214844 L 156 899.214844 C 114.578125 899.214844 81 865.636719 81 824.214844 L 81 485.867188 C 81 444.445312 114.578125 410.867188 156 410.867188 L 1284 410.867188 C 1325.421875 410.867188 1359 444.445312 1359 485.867188 Z M 1359 485.867188 "/></clipPath><clipPath id="9d49c2d782"><path d="M 503.304688 410.9375 L 936.804688 410.9375 L 936.804688 728.726562 L 503.304688 728.726562 Z M 503.304688 410.9375 "/></clipPath><clipPath id="09c6bf9137"><path d="M 565 14 L 998 14 L 998 616 L 565 616 Z M 565 14 "/></clipPath><clipPath id="ed321b2bac"><path d="M 584.945312 0 L 1013.042969 68.234375 L 922.730469 634.832031 L 494.636719 566.597656 Z M 584.945312 0 "/></clipPath><clipPath id="d054f1a23f"><path d="M 584.945312 0 L 1013.042969 68.234375 L 922.730469 634.832031 L 494.636719 566.597656 Z M 584.945312 0 "/></clipPath><clipPath id="109573fb6a"><path d="M 584.945312 0 L 1013.042969 68.234375 L 922.730469 634.832031 L 494.636719 566.597656 Z M 584.945312 0 "/></clipPath><clipPath id="e5d9ce03b1"><path d="M 529 0 L 672 0 L 672 202 L 529 202 Z M 529 0 "/></clipPath><clipPath id="d52c83083f"><path d="M 680.242188 -6.550781 L 632.210938 213.710938 L 513.5 187.824219 L 561.53125 -32.4375 Z M 680.242188 -6.550781 "/></clipPath><clipPath id="a8bb203e5c"><path d="M 650.566406 129.542969 L 670.65625 37.414062 C 673.199219 25.753906 671.003906 13.5625 664.554688 3.515625 C 658.109375 -6.527344 647.9375 -13.597656 636.273438 -16.140625 L 605.5 -22.851562 C 593.835938 -25.394531 581.644531 -23.199219 571.601562 -16.753906 C 561.558594 -10.304688 554.488281 -0.132812 551.945312 11.527344 L 531.855469 103.65625 C 525.996094 130.53125 531.050781 158.632812 545.910156 181.777344 C 558.726562 201.742188 585.300781 207.535156 605.265625 194.71875 C 628.410156 179.859375 644.707031 156.417969 650.566406 129.542969 Z M 650.566406 129.542969 "/></clipPath><clipPath id="9d91e08676"><path d="M 553 0 L 756 0 L 756 87 L 553 87 Z M 553 0 "/></clipPath><clipPath id="5e84a78ab3"><path d="M 534.867188 12.570312 L 706.195312 -133.953125 L 785.164062 -41.617188 L 613.835938 104.90625 Z M 534.867188 12.570312 "/></clipPath><clipPath id="4938c2e4d2"><path d="M 640.726562 -77.964844 L 569.066406 -16.675781 C 559.996094 -8.921875 554.378906 2.121094 553.449219 14.019531 C 552.519531 25.917969 556.355469 37.699219 564.113281 46.769531 L 584.585938 70.707031 C 592.34375 79.777344 603.386719 85.394531 615.285156 86.324219 C 627.183594 87.253906 638.964844 83.417969 648.035156 75.660156 L 719.695312 14.375 C 740.597656 -3.503906 753.542969 -28.953125 755.683594 -56.371094 C 757.527344 -80.023438 739.851562 -100.695312 716.199219 -102.542969 C 688.777344 -104.679688 661.628906 -95.839844 640.726562 -77.964844 Z M 640.726562 -77.964844 "/></clipPath><clipPath id="ce515fb120"><path d="M 884 0 L 1056 0 L 1056 135 L 884 135 Z M 884 0 "/></clipPath><clipPath id="91a21b2e6a"><path d="M 966 150.773438 L 855.457031 -45.703125 L 961.347656 -105.277344 L 1071.890625 91.199219 Z M 966 150.773438 "/></clipPath><clipPath id="3e9e835ce2"><path d="M 897.699219 29.375 L 943.933594 111.554688 C 949.785156 121.957031 959.53125 129.609375 971.023438 132.824219 C 982.515625 136.042969 994.816406 134.5625 1005.21875 128.710938 L 1032.671875 113.265625 C 1043.074219 107.410156 1050.722656 97.667969 1053.941406 86.175781 C 1057.15625 74.683594 1055.675781 62.382812 1049.824219 51.980469 L 1003.589844 -30.199219 C 990.101562 -54.171875 967.648438 -71.804688 941.160156 -79.21875 C 918.3125 -85.613281 894.609375 -72.277344 888.214844 -49.429688 C 880.800781 -22.941406 884.210938 5.40625 897.699219 29.375 Z M 897.699219 29.375 "/></clipPath><clipPath id="7a0280007f"><path d="M 921 29 L 1057 29 L 1057 256 L 921 256 Z M 921 29 "/></clipPath><clipPath id="21a302d81d"><path d="M 1061.890625 39.847656 L 1031.300781 263.203125 L 910.925781 246.71875 L 941.515625 23.363281 Z M 1061.890625 39.847656 "/></clipPath><clipPath id="79bb952121"><path d="M 1042.992188 177.855469 L 1055.785156 84.433594 C 1057.40625 72.609375 1054.261719 60.625 1047.042969 51.121094 C 1039.828125 41.613281 1029.132812 35.363281 1017.308594 33.742188 L 986.097656 29.46875 C 974.273438 27.851562 962.289062 30.996094 952.785156 38.210938 C 943.277344 45.425781 937.027344 56.125 935.410156 67.949219 L 922.613281 161.367188 C 918.882812 188.621094 926.128906 216.234375 942.757812 238.144531 C 957.101562 257.039062 984.050781 260.730469 1002.945312 246.386719 C 1024.855469 229.757812 1039.257812 205.105469 1042.992188 177.855469 Z M 1042.992188 177.855469 "/></clipPath></defs><g id="d79018b315"><rect x="0" width="1440" y="0" height="809.999993" style="fill:#ffffff;fill-opacity:1;stroke:none;"/><rect x="0" width="1440" y="0" height="809.999993" style="fill:#ffffff;fill-opacity:1;stroke:none;"/><g clip-rule="nonzero" clip-path="url(#baa25628fc)"><g clip-rule="nonzero" clip-path="url(#129707cad6)"><path style=" stroke:none;fill-rule:nonzero;fill:#ffaade;fill-opacity:1;" d="M 81 410.867188 L 1359.09375 410.867188 L 1359.09375 899.214844 L 81 899.214844 Z M 81 410.867188 "/></g></g><g clip-rule="nonzero" clip-path="url(#9d49c2d782)"><path style=" stroke:none;fill-rule:nonzero;fill:#cd5454;fill-opacity:1;" d="M 914.191406 192.386719 C 890.984375 159.625 851.398438 149.160156 813.402344 158.714844 C 800.890625 161.902344 788.605469 165.539062 776.546875 169.636719 C 757.664062 176.234375 738.777344 179.417969 719.894531 179.417969 C 701.011719 179.417969 682.128906 176.234375 663.246094 169.636719 C 651.1875 165.539062 638.675781 161.671875 626.390625 158.714844 C 588.394531 149.160156 548.808594 159.625 525.601562 192.386719 C 501.257812 226.511719 497.847656 275.199219 510.8125 314.332031 C 529.925781 371.210938 559.730469 421.488281 556.089844 483.828125 C 552.222656 553.902344 554.496094 649.910156 595.675781 710.199219 C 609.324219 730.222656 635.945312 737.957031 648.457031 711.792969 C 664.15625 678.347656 660.0625 642.175781 655.964844 606.226562 C 651.871094 570.054688 648.003906 533.652344 664.609375 500.207031 C 675.988281 477.457031 694.414062 466.308594 719.894531 466.308594 C 745.378906 466.308594 763.804688 477.457031 775.179688 500.207031 C 791.789062 533.878906 787.921875 570.054688 783.828125 606.226562 C 779.730469 642.175781 775.636719 678.347656 791.335938 711.792969 C 803.621094 737.957031 830.464844 730.222656 844.117188 710.199219 C 885.296875 649.910156 887.796875 553.902344 883.703125 483.828125 C 880.0625 421.488281 910.09375 371.4375 928.976562 314.332031 C 941.945312 275.199219 938.53125 226.511719 914.191406 192.386719 Z M 914.191406 192.386719 "/></g><g clip-rule="nonzero" clip-path="url(#09c6bf9137)"><g clip-rule="nonzero" clip-path="url(#ed321b2bac)"><g clip-rule="nonzero" clip-path="url(#d054f1a23f)"><g clip-rule="nonzero" clip-path="url(#109573fb6a)"><path style=" stroke:none;fill-rule:nonzero;fill:#eaeaea;fill-opacity:1;" d="M 985.121094 101.667969 C 967.34375 65.660156 929.867188 49.089844 890.816406 52.539062 C 877.949219 53.714844 865.234375 55.375 852.671875 57.519531 C 832.972656 61.058594 813.808594 61.230469 795.148438 58.253906 C 776.484375 55.28125 758.324219 49.160156 740.703125 39.671875 C 729.429688 33.726562 717.671875 27.9375 705.996094 23.082031 C 669.953125 7.660156 629.183594 11.757812 601.09375 40.457031 C 571.664062 70.324219 560.628906 117.867188 567.285156 158.550781 C 577.21875 217.730469 598.757812 272.078125 585.347656 333.066406 C 570.496094 401.65625 557.632812 496.828125 588.835938 562.851562 C 599.175781 584.773438 624.265625 596.605469 640.75 572.738281 C 661.527344 542.183594 663.175781 505.816406 664.785156 469.671875 C 666.433594 433.304688 668.339844 396.75 690.019531 366.335938 C 704.839844 345.660156 724.808594 337.554688 749.988281 341.570312 C 775.171875 345.582031 791.628906 359.496094 799.289062 383.753906 C 810.402344 419.621094 800.886719 454.734375 791.144531 489.8125 C 781.441406 524.667969 771.699219 559.746094 781.949219 595.246094 C 789.972656 623.019531 817.722656 619.609375 834.363281 601.988281 C 884.550781 548.933594 902.132812 454.515625 909.117188 384.671875 C 915.332031 322.539062 952.890625 277.839844 980.539062 224.421875 C 999.515625 187.820312 1003.804688 139.203125 985.121094 101.667969 Z M 985.121094 101.667969 "/></g></g></g></g><g clip-rule="nonzero" clip-path="url(#e5d9ce03b1)"><g clip-rule="nonzero" clip-path="url(#d52c83083f)"><g clip-rule="nonzero" clip-path="url(#a8bb203e5c)"><path style=" stroke:none;fill-rule:nonzero;fill:#8b8b8b;fill-opacity:1;" d="M 680.242188 -6.550781 L 628.46875 230.867188 L 509.761719 204.984375 L 561.53125 -32.4375 Z M 680.242188 -6.550781 "/></g></g></g><g clip-rule="nonzero" clip-path="url(#9d91e08676)"><g clip-rule="nonzero" clip-path="url(#5e84a78ab3)"><g clip-rule="nonzero" clip-path="url(#4938c2e4d2)"><path style=" stroke:none;fill-rule:nonzero;fill:#8b8b8b;fill-opacity:1;" d="M 534.867188 12.570312 L 719.539062 -145.367188 L 798.507812 -53.03125 L 613.835938 104.90625 Z M 534.867188 12.570312 "/></g></g></g><g clip-rule="nonzero" clip-path="url(#ce515fb120)"><g clip-rule="nonzero" clip-path="url(#91a21b2e6a)"><g clip-rule="nonzero" clip-path="url(#3e9e835ce2)"><path style=" stroke:none;fill-rule:nonzero;fill:#8b8b8b;fill-opacity:1;" d="M 966 150.773438 L 846.847656 -61.007812 L 952.738281 -120.582031 L 1071.890625 91.199219 Z M 966 150.773438 "/></g></g></g><g clip-rule="nonzero" clip-path="url(#7a0280007f)"><g clip-rule="nonzero" clip-path="url(#21a302d81d)"><g clip-rule="nonzero" clip-path="url(#79bb952121)"><path style=" stroke:none;fill-rule:nonzero;fill:#8b8b8b;fill-opacity:1;" d="M 1061.890625 39.847656 L 1028.917969 280.601562 L 908.542969 264.117188 L 941.515625 23.363281 Z M 1061.890625 39.847656 "/></g></g></g></g></svg>