<svg xmlns="http://www.w3.org/2000/svg" xmlns:xlink="http://www.w3.org/1999/xlink" width="1920" zoomAndPan="magnify" viewBox="0 0 1440 809.999993" height="1080" preserveAspectRatio="xMidYMid meet" version="1.2"><defs><clipPath id="0d620145d3"><path d="M 81 410.867188 L 1359 410.867188 L 1359 810 L 81 810 Z M 81 410.867188 "/></clipPath><clipPath id="b88955483d"><path d="M 1359 485.867188 L 1359 824.214844 C 1359 865.636719 1325.421875 899.214844 1284 899.214844 L 156 899.214844 C 114.578125 899.214844 81 865.636719 81 824.214844 L 81 485.867188 C 81 444.445312 114.578125 410.867188 156 410.867188 L 1284 410.867188 C 1325.421875 410.867188 1359 444.445312 1359 485.867188 Z M 1359 485.867188 "/></clipPath><clipPath id="95559d2201"><path d="M 503.304688 155 L 936.804688 155 L 936.804688 728.726562 L 503.304688 728.726562 Z M 503.304688 155 "/></clipPath><clipPath id="04beb28f2f"><path d="M 598.5 148.226562 L 841.5 148.226562 L 841.5 269.726562 L 598.5 269.726562 Z M 598.5 148.226562 "/></clipPath><clipPath id="384f6b2324"><path d="M 780.75 148.226562 C 814.300781 148.226562 841.5 175.425781 841.5 208.976562 C 841.5 242.527344 814.300781 269.726562 780.75 269.726562 L 659.25 269.726562 C 625.699219 269.726562 598.5 242.527344 598.5 208.976562 C 598.5 175.425781 625.699219 148.226562 659.25 148.226562 Z M 780.75 148.226562 "/></clipPath><linearGradient x1="256" gradientTransform="matrix(0.474609,0,0,0.474609,598.500001,148.226949)" y1="0.0000333408" x2="256" gradientUnits="userSpaceOnUse" y2="256.00002" id="57592c2fe3"><stop style="stop-color:#9ff0fd;stop-opacity:1;" offset="0"/><stop style="stop-color:#9ff0fd;stop-opacity:1;" offset="0.015625"/><stop style="stop-color:#9eeffd;stop-opacity:1;" offset="0.03125"/><stop style="stop-color:#9deefd;stop-opacity:1;" offset="0.046875"/><stop style="stop-color:#9dedfd;stop-opacity:1;" offset="0.0625"/><stop style="stop-color:#9cecfd;stop-opacity:1;" offset="0.078125"/><stop style="stop-color:#9bebfd;stop-opacity:1;" offset="0.09375"/><stop style="stop-color:#9beafd;stop-opacity:1;" offset="0.109375"/><stop style="stop-color:#9aeafd;stop-opacity:1;" offset="0.125"/><stop style="stop-color:#99e9fd;stop-opacity:1;" offset="0.140625"/><stop style="stop-color:#99e8fd;stop-opacity:1;" offset="0.15625"/><stop style="stop-color:#98e7fd;stop-opacity:1;" offset="0.171875"/><stop style="stop-color:#97e6fd;stop-opacity:1;" offset="0.1875"/><stop style="stop-color:#97e5fd;stop-opacity:1;" offset="0.203125"/><stop style="stop-color:#96e5fd;stop-opacity:1;" offset="0.21875"/><stop style="stop-color:#95e4fd;stop-opacity:1;" offset="0.234375"/><stop style="stop-color:#95e3fd;stop-opacity:1;" offset="0.25"/><stop style="stop-color:#94e2fd;stop-opacity:1;" offset="0.265625"/><stop style="stop-color:#93e1fe;stop-opacity:1;" offset="0.28125"/><stop style="stop-color:#93e0fe;stop-opacity:1;" offset="0.296875"/><stop style="stop-color:#92dffe;stop-opacity:1;" offset="0.3125"/><stop style="stop-color:#91dffe;stop-opacity:1;" offset="0.328125"/><stop style="stop-color:#91defe;stop-opacity:1;" offset="0.34375"/><stop style="stop-color:#90ddfe;stop-opacity:1;" offset="0.359375"/><stop style="stop-color:#8fdcfe;stop-opacity:1;" offset="0.375"/><stop style="stop-color:#8fdbfe;stop-opacity:1;" offset="0.390625"/><stop style="stop-color:#8edafe;stop-opacity:1;" offset="0.40625"/><stop style="stop-color:#8ddafe;stop-opacity:1;" offset="0.421875"/><stop style="stop-color:#8dd9fe;stop-opacity:1;" offset="0.4375"/><stop style="stop-color:#8cd8fe;stop-opacity:1;" offset="0.453125"/><stop style="stop-color:#8bd7fe;stop-opacity:1;" offset="0.46875"/><stop style="stop-color:#8bd6fe;stop-opacity:1;" offset="0.484375"/><stop style="stop-color:#8ad5fe;stop-opacity:1;" offset="0.5"/><stop style="stop-color:#89d4fe;stop-opacity:1;" offset="0.515625"/><stop style="stop-color:#89d4fe;stop-opacity:1;" offset="0.53125"/><stop style="stop-color:#88d3fe;stop-opacity:1;" offset="0.546875"/><stop style="stop-color:#87d2fe;stop-opacity:1;" offset="0.5625"/><stop style="stop-color:#87d1fe;stop-opacity:1;" offset="0.578125"/><stop style="stop-color:#86d0fe;stop-opacity:1;" offset="0.59375"/><stop style="stop-color:#85cffe;stop-opacity:1;" offset="0.609375"/><stop style="stop-color:#85cffe;stop-opacity:1;" offset="0.625"/><stop style="stop-color:#84cefe;stop-opacity:1;" offset="0.640625"/><stop style="stop-color:#83cdfe;stop-opacity:1;" offset="0.65625"/><stop style="stop-color:#82ccfe;stop-opacity:1;" offset="0.671875"/><stop style="stop-color:#82cbfe;stop-opacity:1;" offset="0.6875"/><stop style="stop-color:#81cafe;stop-opacity:1;" offset="0.703125"/><stop style="stop-color:#80cafe;stop-opacity:1;" offset="0.71875"/><stop style="stop-color:#80c9fe;stop-opacity:1;" offset="0.734375"/><stop style="stop-color:#7fc8fe;stop-opacity:1;" offset="0.75"/><stop style="stop-color:#7ec7ff;stop-opacity:1;" offset="0.765625"/><stop style="stop-color:#7ec6ff;stop-opacity:1;" offset="0.78125"/><stop style="stop-color:#7dc5ff;stop-opacity:1;" offset="0.796875"/><stop style="stop-color:#7cc4ff;stop-opacity:1;" offset="0.8125"/><stop style="stop-color:#7cc4ff;stop-opacity:1;" offset="0.828125"/><stop style="stop-color:#7bc3ff;stop-opacity:1;" offset="0.84375"/><stop style="stop-color:#7ac2ff;stop-opacity:1;" offset="0.859375"/><stop style="stop-color:#7ac1ff;stop-opacity:1;" offset="0.875"/><stop style="stop-color:#79c0ff;stop-opacity:1;" offset="0.890625"/><stop style="stop-color:#78bfff;stop-opacity:1;" offset="0.90625"/><stop style="stop-color:#78bfff;stop-opacity:1;" offset="0.921875"/><stop style="stop-color:#77beff;stop-opacity:1;" offset="0.9375"/><stop style="stop-color:#76bdff;stop-opacity:1;" offset="0.953125"/><stop style="stop-color:#76bcff;stop-opacity:1;" offset="0.96875"/><stop style="stop-color:#75bbff;stop-opacity:1;" offset="0.984375"/><stop style="stop-color:#74baff;stop-opacity:1;" offset="1"/></linearGradient><clipPath id="58e82db0fa"><path d="M 562.269531 0 L 878 0 L 878 176.136719 L 562.269531 176.136719 Z M 562.269531 0 "/></clipPath><clipPath id="fac432d42d"><path d="M 720 -66.863281 C 632.886719 -66.863281 562.269531 -12.46875 562.269531 54.636719 C 562.269531 121.738281 632.886719 176.136719 720 176.136719 C 807.113281 176.136719 877.730469 121.738281 877.730469 54.636719 C 877.730469 -12.46875 807.113281 -66.863281 720 -66.863281 Z M 720 -66.863281 "/></clipPath><clipPath id="7a294c8fcb"><path d="M 506.160156 179.683594 L 701.949219 179.683594 L 701.949219 370.992188 L 506.160156 370.992188 Z M 506.160156 179.683594 "/></clipPath><clipPath id="10a6127556"><path d="M 603.824219 179.683594 C 549.886719 179.683594 506.160156 222.511719 506.160156 275.339844 C 506.160156 328.167969 549.886719 370.992188 603.824219 370.992188 C 657.761719 370.992188 701.488281 328.167969 701.488281 275.339844 C 701.488281 222.511719 657.761719 179.683594 603.824219 179.683594 Z M 603.824219 179.683594 "/></clipPath><clipPath id="e23fd2b0b0"><path d="M 738.511719 179.683594 L 934 179.683594 L 934 370.992188 L 738.511719 370.992188 Z M 738.511719 179.683594 "/></clipPath><clipPath id="226031371d"><path d="M 836.175781 179.683594 C 782.238281 179.683594 738.511719 222.511719 738.511719 275.339844 C 738.511719 328.167969 782.238281 370.992188 836.175781 370.992188 C 890.113281 370.992188 933.839844 328.167969 933.839844 275.339844 C 933.839844 222.511719 890.113281 179.683594 836.175781 179.683594 Z M 836.175781 179.683594 "/></clipPath></defs><g id="6dea36758a"><rect x="0" width="1440" y="0" height="809.999993" style="fill:#ffffff;fill-opacity:1;stroke:none;"/><rect x="0" width="1440" y="0" height="809.999993" style="fill:#ffffff;fill-opacity:1;stroke:none;"/><g clip-rule="nonzero" clip-path="url(#0d620145d3)"><g clip-rule="nonzero" clip-path="url(#b88955483d)"><path style=" stroke:none;fill-rule:nonzero;fill:#ffaade;fill-opacity:1;" d="M 81 410.867188 L 1359.09375 410.867188 L 1359.09375 899.214844 L 81 899.214844 Z M 81 410.867188 "/></g></g><g clip-rule="nonzero" clip-path="url(#95559d2201)"><path style=" stroke:none;fill-rule:nonzero;fill:#eaeaea;fill-opacity:1;" d="M 914.492188 192.386719 C 891.269531 159.625 851.65625 149.160156 813.632812 158.714844 C 801.109375 161.902344 788.816406 165.539062 776.75 169.636719 C 757.851562 176.234375 738.953125 179.417969 720.054688 179.417969 C 701.160156 179.417969 682.261719 176.234375 663.363281 169.636719 C 651.296875 165.539062 638.773438 161.671875 626.480469 158.714844 C 588.457031 149.160156 548.84375 159.625 525.617188 192.386719 C 501.257812 226.511719 497.84375 275.199219 510.820312 314.332031 C 529.945312 371.210938 559.769531 421.488281 556.128906 483.828125 C 552.257812 553.902344 554.535156 649.910156 595.742188 710.199219 C 609.40625 730.222656 636.042969 737.957031 648.566406 711.792969 C 664.273438 678.347656 660.175781 642.175781 656.078125 606.226562 C 651.980469 570.054688 648.109375 533.652344 664.730469 500.207031 C 676.113281 477.457031 694.554688 466.308594 720.054688 466.308594 C 745.554688 466.308594 764 477.457031 775.382812 500.207031 C 792.003906 533.878906 788.132812 570.054688 784.035156 606.226562 C 779.9375 642.175781 775.835938 678.347656 791.546875 711.792969 C 803.84375 737.957031 830.707031 730.222656 844.367188 710.199219 C 885.578125 649.910156 888.082031 553.902344 883.984375 483.828125 C 880.34375 421.488281 910.394531 371.4375 929.292969 314.332031 C 942.269531 275.199219 938.855469 226.511719 914.492188 192.386719 Z M 914.492188 192.386719 "/></g><g clip-rule="nonzero" clip-path="url(#04beb28f2f)"><g clip-rule="nonzero" clip-path="url(#384f6b2324)"><path style=" stroke:none;fill-rule:nonzero;fill:url(#57592c2fe3);" d="M 598.5 148.226562 L 598.5 269.726562 L 841.5 269.726562 L 841.5 148.226562 Z M 598.5 148.226562 "/></g></g><g clip-rule="nonzero" clip-path="url(#58e82db0fa)"><g clip-rule="nonzero" clip-path="url(#fac432d42d)"><path style=" stroke:none;fill-rule:nonzero;fill:#ffffff;fill-opacity:1;" d="M 562.269531 -66.863281 L 877.410156 -66.863281 L 877.410156 176.136719 L 562.269531 176.136719 Z M 562.269531 -66.863281 "/></g></g><g clip-rule="nonzero" clip-path="url(#7a294c8fcb)"><g clip-rule="nonzero" clip-path="url(#10a6127556)"><path style=" stroke:none;fill-rule:nonzero;fill:#eaeaea;fill-opacity:1;" d="M 506.160156 179.683594 L 701.203125 179.683594 L 701.203125 370.992188 L 506.160156 370.992188 Z M 506.160156 179.683594 "/></g></g><g clip-rule="nonzero" clip-path="url(#e23fd2b0b0)"><g clip-rule="nonzero" clip-path="url(#226031371d)"><path style=" stroke:none;fill-rule:nonzero;fill:#eaeaea;fill-opacity:1;" d="M 738.511719 179.683594 L 933.554688 179.683594 L 933.554688 370.992188 L 738.511719 370.992188 Z M 738.511719 179.683594 "/></g></g></g></svg>